
<svg width="93" height="52" viewBox="0 0 93 52" fill="none" xmlns="http://www.w3.org/2000/svg">
<path d="M25.9788 6.08235C25.9788 5.68403 25.8145 5.30203 25.522 5.02037C25.2296 4.73872 24.8329 4.58049 24.4193 4.58049H16.1994V3.26608H16.7234C16.7705 3.26638 16.8172 3.25774 16.8608 3.24067C16.9045 3.22359 16.9442 3.19841 16.9777 3.16655C17.0112 3.1347 17.0379 3.0968 17.0562 3.05502C17.0745 3.01324 17.084 2.9684 17.0844 2.92306V1.34303C17.084 1.29768 17.0745 1.25284 17.0562 1.21106C17.0379 1.16928 17.0112 1.13138 16.9777 1.09953C16.9442 1.06768 16.9045 1.04249 16.8608 1.02542C16.8172 1.00834 16.7705 0.999708 16.7234 1.00001H10.2924C10.2453 0.999708 10.1986 1.00834 10.155 1.02542C10.1114 1.04249 10.0717 1.06768 10.0382 1.09953C10.0046 1.13138 9.97796 1.16928 9.95966 1.21106C9.94135 1.25284 9.93177 1.29768 9.93146 1.34303V2.92306C9.93177 2.9684 9.94135 3.01324 9.95966 3.05502C9.97796 3.0968 10.0046 3.1347 10.0382 3.16655C10.0717 3.19841 10.1114 3.22359 10.155 3.24067C10.1986 3.25774 10.2453 3.26638 10.2924 3.26608H10.818V4.58049H2.5595C2.1459 4.58049 1.74923 4.73872 1.45677 5.02037C1.1643 5.30203 1 5.68403 1 6.08235V11.5745H25.9804L25.9788 6.08235Z" fill="#FEFEFE"/>
<path d="M22.9835 14.708L13.2751 24.7512L16.4556 21.4599L1.01817 37.418V50.5295C1.01822 50.6159 1.04528 50.7002 1.09582 50.7716C1.14635 50.843 1.21803 50.8981 1.30152 50.9297C1.38501 50.9613 1.47645 50.9679 1.56393 50.9488C1.65141 50.9297 1.73088 50.8856 1.79201 50.8224L12.0789 40.1849L13.0245 39.2029L25.2389 50.874C25.3014 50.9336 25.3808 50.9742 25.4672 50.9905C25.5535 51.0068 25.6429 50.9983 25.7242 50.9658C25.8055 50.9334 25.8751 50.8786 25.9242 50.8083C25.9732 50.7379 25.9997 50.6552 26.0001 50.5704V38.3939L19.6644 32.3402L19.6833 32.3212L25.997 25.7947V11.5919L23.19 14.4939L22.9835 14.708Z" fill="#FEFEFE"/>
<path d="M1.01817 32.8493L9.27114 24.2775V14.2236H1.01817V32.8493Z" fill="#FEFEFE"/>
<path d="M5.95159 51.0001H20.6482L13.0359 43.6699L5.95159 51.0001Z" fill="#FEFEFE"/>
<path d="M33.0996 23.9872V49.795H92.5295V23.9872H33.0996ZM46.8286 46.0605L42.4498 39.09V46.0605H37.57V29.4824H42.4498V35.7122L46.4146 29.4824H51.9044L46.6517 37.3575L52.6455 46.0605H46.8286ZM70.4118 41.1436C70.002 42.1736 69.3856 43.1096 68.6003 43.8946C67.8149 44.6796 66.877 45.297 65.8439 45.7091C64.7764 46.1442 63.5946 46.3618 62.2984 46.3618C60.9686 46.3618 59.7677 46.1442 58.6957 45.7091C57.6591 45.2973 56.7201 44.6749 55.9386 43.8817C55.1714 43.096 54.5706 42.1649 54.172 41.1436C53.7532 40.0643 53.5434 38.9159 53.5536 37.7589C53.5441 36.602 53.7694 35.4552 54.2162 34.3871C54.6446 33.3635 55.2731 32.4349 56.0652 31.6551C56.863 30.8714 57.8085 30.2524 58.8474 29.8337C59.9433 29.392 61.1161 29.1699 62.2984 29.1803C63.4933 29.1677 64.6789 29.3897 65.7874 29.8337C66.8247 30.2518 67.7681 30.8709 68.5628 31.6551C69.3504 32.4347 69.9726 33.3637 70.3927 34.3871C70.8313 35.4572 71.0521 36.6033 71.0424 37.7589C71.0528 38.917 70.8387 40.0662 70.4118 41.1436ZM87.373 46.0605H82.5031V39.8535H78.3011V46.0575H73.4213V29.4824H78.3011V35.6492H82.5031V29.4824H87.373V46.0605Z" fill="#FEFEFE"/>
<path d="M64.229 34.2551C63.6836 33.8893 63.0401 33.7064 62.2984 33.7064C61.5568 33.7064 60.9174 33.8906 60.3801 34.2589C59.8327 34.6283 59.3932 35.1352 59.106 35.7281C58.8067 36.3661 58.6515 37.0617 58.6515 37.7658C58.6515 38.4699 58.8067 39.1654 59.106 39.8034C59.3906 40.3982 59.8307 40.9059 60.3801 41.2734C60.927 41.6372 61.5665 41.819 62.2984 41.819C63.0304 41.819 63.6739 41.6372 64.229 41.2734C64.7784 40.9059 65.2184 40.3982 65.5031 39.8034C65.8024 39.1654 65.9575 38.4699 65.9575 37.7658C65.9575 37.0617 65.8024 36.3661 65.5031 35.7281C65.2165 35.1338 64.7769 34.6256 64.229 34.2551Z" fill="#FEFEFE"/>
<path d="M41.4785 15.957C41.2752 16.1022 40.9613 16.1748 40.5369 16.1748C40.2379 16.1719 39.9406 16.1288 39.6532 16.0465C39.3494 15.9641 39.0524 15.8585 38.7649 15.7308C38.4843 15.6058 38.2439 15.4864 38.0436 15.3726C37.9074 15.2996 37.7767 15.217 37.6525 15.1252L36.2266 17.6091C36.3044 17.689 36.5332 17.834 36.9129 18.0439C37.39 18.2929 37.8932 18.4889 38.4134 18.6283C39.1016 18.817 39.8132 18.9077 40.527 18.8977C41.0558 18.8984 41.5825 18.8324 42.0946 18.7011C42.5858 18.5786 43.0523 18.3733 43.4739 18.094C43.8789 17.825 44.2135 17.4636 44.4499 17.0399C44.6913 16.6104 44.8121 16.0938 44.8121 15.4902C44.8189 15.0556 44.7412 14.6237 44.5833 14.2183C44.4349 13.8507 44.2216 13.5125 43.9535 13.2196C43.6802 12.9244 43.3641 12.6714 43.0157 12.4691C42.6462 12.2532 42.2569 12.073 41.8529 11.931C41.4877 11.8051 41.1305 11.6573 40.7832 11.4886C40.5644 11.388 40.3655 11.2492 40.1961 11.0788C40.078 10.9542 40.0122 10.7894 40.0123 10.6181C40.0085 10.5047 40.0386 10.3927 40.0987 10.2963C40.1588 10.1998 40.2463 10.1233 40.3501 10.0763C40.5753 9.95939 40.8658 9.90095 41.2216 9.90095C41.5079 9.90307 41.7916 9.95442 42.0603 10.0527C42.3188 10.1424 42.5687 10.2552 42.8068 10.3897C42.9663 10.4782 43.1192 10.5781 43.2642 10.6887L44.6481 8.29892C44.4553 8.17121 44.2546 8.05563 44.0473 7.95286C43.6326 7.74598 43.1984 7.58025 42.7511 7.45806C42.1498 7.29325 41.528 7.2143 40.9044 7.22356C40.2559 7.21942 39.6138 7.35184 39.0203 7.61212C38.455 7.85203 37.9623 8.23443 37.5907 8.72163C37.2262 9.20226 37.044 9.77548 37.044 10.4413C37.044 11.1071 37.1762 11.6591 37.4405 12.0972C37.6957 12.5322 38.0462 12.9042 38.466 13.1855C38.8879 13.4681 39.3394 13.7042 39.8125 13.8897C40.2077 14.0383 40.5945 14.2078 40.9715 14.3974C41.2065 14.5093 41.4185 14.6637 41.5967 14.8528C41.7202 14.9933 41.7882 15.1737 41.7881 15.3605C41.7912 15.4778 41.7644 15.594 41.7103 15.6983C41.6562 15.8026 41.5764 15.8915 41.4785 15.957Z" fill="#FEFEFE"/>
<path d="M49.8491 14.5552H51.2833C51.9524 14.5646 52.6142 14.4153 53.2139 14.1196C53.7805 13.8379 54.2561 13.4032 54.5863 12.8651C54.9253 12.3187 55.0949 11.661 55.0949 10.892C55.0949 10.123 54.9253 9.47413 54.5863 8.94543C54.2542 8.42782 53.7771 8.01835 53.2139 7.76762C52.6064 7.49935 51.9477 7.36549 51.2833 7.37527H46.9471V18.6434H49.8445L49.8491 14.5552ZM49.8491 9.69826H50.4751C50.7377 9.69371 50.999 9.73718 51.2459 9.82651C51.4605 9.90542 51.6465 10.0466 51.7796 10.2318C51.9133 10.4169 51.9802 10.6631 51.9802 10.9702C51.9802 11.2773 51.9133 11.5204 51.7796 11.6995C51.6463 11.8846 51.4604 12.026 51.2459 12.1055C50.9989 12.1942 50.7377 12.2374 50.4751 12.233H49.8491V9.69826Z" fill="#FEFEFE"/>
<path d="M58.8006 17.1379C59.3085 17.673 59.9236 18.096 60.6062 18.3794C61.3515 18.6842 62.1512 18.8352 62.9569 18.8234C63.749 18.8326 64.5347 18.6816 65.2664 18.3794C65.9505 18.0948 66.5679 17.672 67.0795 17.1379C67.5924 16.6005 67.9944 15.9683 68.2629 15.2771C68.5451 14.543 68.6863 13.7628 68.6792 12.9768C68.6858 12.1929 68.5416 11.415 68.2545 10.685C67.9816 9.99296 67.5735 9.36175 67.0536 8.82795C66.5367 8.299 65.9187 7.8784 65.2359 7.59095C63.7811 6.99898 62.1509 6.99898 60.6961 7.59095C60.012 7.87796 59.3926 8.29858 58.8746 8.82795C58.3537 9.36269 57.9426 9.99349 57.6646 10.685C57.3715 11.4136 57.2242 12.1921 57.2307 12.9768C57.2238 13.7621 57.3623 14.5418 57.6394 15.2771C57.9 15.9672 58.2946 16.5995 58.8006 17.1379ZM60.5932 11.4332C60.805 10.988 61.1315 10.6065 61.5394 10.3275C61.9624 10.0575 62.4544 9.91393 62.9569 9.91393C63.4594 9.91393 63.9513 10.0575 64.3743 10.3275C64.7825 10.6063 65.109 10.9878 65.3205 11.4332C65.5431 11.9189 65.6583 12.4465 65.6583 12.9803C65.6583 13.5141 65.5431 14.0416 65.3205 14.5273C65.1102 14.9728 64.7834 15.354 64.3743 15.6307C63.9504 15.8984 63.4588 16.0405 62.9569 16.0405C62.4549 16.0405 61.9633 15.8984 61.5394 15.6307C61.1303 15.3533 60.8035 14.9717 60.5932 14.5258C60.3706 14.0401 60.2555 13.5125 60.2555 12.9787C60.2555 12.445 60.3706 11.9174 60.5932 11.4317V11.4332Z" fill="#FEFEFE"/>
<path d="M73.7271 14.2807H73.8689L76.1868 18.642H79.4464L76.7953 14.0499C77.1242 13.9697 77.4347 13.8278 77.7102 13.6318C78.0442 13.4092 78.3304 13.0735 78.5688 12.6247C78.8072 12.176 78.9269 11.5926 78.9279 10.8747C78.9279 10.1522 78.782 9.52919 78.4902 9.00555C78.2142 8.49814 77.7991 8.07917 77.2932 7.79739C76.7589 7.50886 76.1586 7.36346 75.5509 7.37544H70.8145V18.642H73.724L73.7271 14.2807ZM73.7271 9.69691H74.5361C74.8784 9.69302 75.2149 9.78478 75.5075 9.96176C75.7997 10.1378 75.9456 10.4735 75.9451 10.9688C75.9446 11.4641 75.7959 11.8039 75.4991 11.988C75.1995 12.1656 74.8565 12.2573 74.5079 12.2529H73.7271V9.69691Z" fill="#FEFEFE"/>
<path d="M84.0652 18.6414H86.9664V9.96108H89.4513V7.37476H81.5811V9.96108H84.0652V18.6414Z" fill="#FEFEFE"/>
<path d="M25.9788 6.08235C25.9788 5.68403 25.8145 5.30203 25.522 5.02037C25.2296 4.73872 24.8329 4.58049 24.4193 4.58049H16.1994V3.26608H16.7234C16.7705 3.26638 16.8172 3.25774 16.8608 3.24067C16.9045 3.22359 16.9442 3.19841 16.9777 3.16655C17.0112 3.1347 17.0379 3.0968 17.0562 3.05502C17.0745 3.01324 17.084 2.9684 17.0844 2.92306V1.34303C17.084 1.29768 17.0745 1.25284 17.0562 1.21106C17.0379 1.16928 17.0112 1.13138 16.9777 1.09953C16.9442 1.06768 16.9045 1.04249 16.8608 1.02542C16.8172 1.00834 16.7705 0.999708 16.7234 1.00001H10.2924C10.2453 0.999708 10.1986 1.00834 10.155 1.02542C10.1114 1.04249 10.0717 1.06768 10.0382 1.09953C10.0046 1.13138 9.97796 1.16928 9.95966 1.21106C9.94135 1.25284 9.93177 1.29768 9.93146 1.34303V2.92306C9.93177 2.9684 9.94135 3.01324 9.95966 3.05502C9.97796 3.0968 10.0046 3.1347 10.0382 3.16655C10.0717 3.19841 10.1114 3.22359 10.155 3.24067C10.1986 3.25774 10.2453 3.26638 10.2924 3.26608H10.818V4.58049H2.5595C2.1459 4.58049 1.74923 4.73872 1.45677 5.02037C1.1643 5.30203 1 5.68403 1 6.08235V11.5745H25.9804L25.9788 6.08235Z" stroke="#FEFEFE" stroke-width="0.5"/>
<path d="M22.9835 14.708L13.2751 24.7512L16.4556 21.4599L1.01817 37.418V50.5295C1.01822 50.6159 1.04528 50.7002 1.09582 50.7716C1.14635 50.843 1.21803 50.8981 1.30152 50.9297C1.38501 50.9613 1.47645 50.9679 1.56393 50.9488C1.65141 50.9297 1.73088 50.8856 1.79201 50.8224L12.0789 40.1849L13.0245 39.2029L25.2389 50.874C25.3014 50.9336 25.3808 50.9742 25.4672 50.9905C25.5535 51.0068 25.6429 50.9983 25.7242 50.9658C25.8055 50.9334 25.8751 50.8786 25.9242 50.8083C25.9732 50.7379 25.9997 50.6552 26.0001 50.5704V38.3939L19.6644 32.3402L19.6833 32.3212L25.997 25.7947V11.5919L23.19 14.4939L22.9835 14.708Z" stroke="#FEFEFE" stroke-width="0.5"/>
<path d="M1.01817 32.8493L9.27114 24.2775V14.2236H1.01817V32.8493Z" stroke="#FEFEFE" stroke-width="0.5"/>
<path d="M5.95159 51.0001H20.6482L13.0359 43.6699L5.95159 51.0001Z" stroke="#FEFEFE" stroke-width="0.5"/>
<path d="M33.0996 23.9872V49.795H92.5295V23.9872H33.0996ZM46.8286 46.0605L42.4498 39.09V46.0605H37.57V29.4824H42.4498V35.7122L46.4146 29.4824H51.9044L46.6517 37.3575L52.6455 46.0605H46.8286ZM70.4118 41.1436C70.002 42.1736 69.3856 43.1096 68.6003 43.8946C67.8149 44.6796 66.877 45.297 65.8439 45.7091C64.7764 46.1442 63.5946 46.3618 62.2984 46.3618C60.9686 46.3618 59.7677 46.1442 58.6957 45.7091C57.6591 45.2973 56.7201 44.6749 55.9386 43.8817C55.1714 43.096 54.5706 42.1649 54.172 41.1436C53.7532 40.0643 53.5434 38.9159 53.5536 37.7589C53.5441 36.602 53.7694 35.4552 54.2162 34.3871C54.6446 33.3635 55.2731 32.4349 56.0652 31.6551C56.863 30.8714 57.8085 30.2524 58.8474 29.8337C59.9433 29.392 61.1161 29.1699 62.2984 29.1803C63.4933 29.1677 64.6789 29.3897 65.7874 29.8337C66.8247 30.2518 67.7681 30.8709 68.5628 31.6551C69.3504 32.4347 69.9726 33.3637 70.3927 34.3871C70.8313 35.4572 71.0521 36.6033 71.0424 37.7589C71.0528 38.917 70.8387 40.0662 70.4118 41.1436ZM87.373 46.0605H82.5031V39.8535H78.3011V46.0575H73.4213V29.4824H78.3011V35.6492H82.5031V29.4824H87.373V46.0605Z" stroke="#FEFEFE" stroke-width="0.5"/>
<path d="M64.229 34.2551C63.6836 33.8893 63.0401 33.7064 62.2984 33.7064C61.5568 33.7064 60.9174 33.8906 60.3801 34.2589C59.8327 34.6283 59.3932 35.1352 59.106 35.7281C58.8067 36.3661 58.6515 37.0617 58.6515 37.7658C58.6515 38.4699 58.8067 39.1654 59.106 39.8034C59.3906 40.3982 59.8307 40.9059 60.3801 41.2734C60.927 41.6372 61.5665 41.819 62.2984 41.819C63.0304 41.819 63.6739 41.6372 64.229 41.2734C64.7784 40.9059 65.2184 40.3982 65.5031 39.8034C65.8024 39.1654 65.9575 38.4699 65.9575 37.7658C65.9575 37.0617 65.8024 36.3661 65.5031 35.7281C65.2165 35.1338 64.7769 34.6256 64.229 34.2551Z" stroke="#FEFEFE" stroke-width="0.5"/>
<path d="M41.4785 15.957C41.2752 16.1022 40.9613 16.1748 40.5369 16.1748C40.2379 16.1719 39.9406 16.1288 39.6532 16.0465C39.3494 15.9641 39.0524 15.8585 38.7649 15.7308C38.4843 15.6058 38.2439 15.4864 38.0436 15.3726C37.9074 15.2996 37.7767 15.217 37.6525 15.1252L36.2266 17.6091C36.3044 17.689 36.5332 17.834 36.9129 18.0439C37.39 18.2929 37.8932 18.4889 38.4134 18.6283C39.1016 18.817 39.8132 18.9077 40.527 18.8977C41.0558 18.8984 41.5825 18.8324 42.0946 18.7011C42.5858 18.5786 43.0523 18.3733 43.4739 18.094C43.8789 17.825 44.2135 17.4636 44.4499 17.0399C44.6913 16.6104 44.8121 16.0938 44.8121 15.4902C44.8189 15.0556 44.7412 14.6237 44.5833 14.2183C44.4349 13.8507 44.2216 13.5125 43.9535 13.2196C43.6802 12.9244 43.3641 12.6714 43.0157 12.4691C42.6462 12.2532 42.2569 12.073 41.8529 11.931C41.4877 11.8051 41.1305 11.6573 40.7832 11.4886C40.5644 11.388 40.3655 11.2492 40.1961 11.0788C40.078 10.9542 40.0122 10.7894 40.0123 10.6181C40.0085 10.5047 40.0386 10.3927 40.0987 10.2963C40.1588 10.1998 40.2463 10.1233 40.3501 10.0763C40.5753 9.95939 40.8658 9.90095 41.2216 9.90095C41.5079 9.90307 41.7916 9.95442 42.0603 10.0527C42.3188 10.1424 42.5687 10.2552 42.8068 10.3897C42.9663 10.4782 43.1192 10.5781 43.2642 10.6887L44.6481 8.29892C44.4553 8.17121 44.2546 8.05563 44.0473 7.95286C43.6326 7.74598 43.1984 7.58025 42.7511 7.45806C42.1498 7.29325 41.528 7.2143 40.9044 7.22356C40.2559 7.21942 39.6138 7.35184 39.0203 7.61212C38.455 7.85203 37.9623 8.23443 37.5907 8.72163C37.2262 9.20226 37.044 9.77548 37.044 10.4413C37.044 11.1071 37.1762 11.6591 37.4405 12.0972C37.6957 12.5322 38.0462 12.9042 38.466 13.1855C38.8879 13.4681 39.3394 13.7042 39.8125 13.8897C40.2077 14.0383 40.5945 14.2078 40.9715 14.3974C41.2065 14.5093 41.4185 14.6637 41.5967 14.8528C41.7202 14.9933 41.7882 15.1737 41.7881 15.3605C41.7912 15.4778 41.7644 15.594 41.7103 15.6983C41.6562 15.8026 41.5764 15.8915 41.4785 15.957Z" stroke="#FEFEFE" stroke-width="0.5"/>
<path d="M49.8491 14.5552H51.2833C51.9524 14.5646 52.6142 14.4153 53.2139 14.1196C53.7805 13.8379 54.2561 13.4032 54.5863 12.8651C54.9253 12.3187 55.0949 11.661 55.0949 10.892C55.0949 10.123 54.9253 9.47413 54.5863 8.94543C54.2542 8.42782 53.7771 8.01835 53.2139 7.76762C52.6064 7.49935 51.9477 7.36549 51.2833 7.37527H46.9471V18.6434H49.8445L49.8491 14.5552ZM49.8491 9.69826H50.4751C50.7377 9.69371 50.999 9.73718 51.2459 9.82651C51.4605 9.90542 51.6465 10.0466 51.7796 10.2318C51.9133 10.4169 51.9802 10.6631 51.9802 10.9702C51.9802 11.2773 51.9133 11.5204 51.7796 11.6995C51.6463 11.8846 51.4604 12.026 51.2459 12.1055C50.9989 12.1942 50.7377 12.2374 50.4751 12.233H49.8491V9.69826Z" stroke="#FEFEFE" stroke-width="0.5"/>
<path d="M58.8006 17.1379C59.3085 17.673 59.9236 18.096 60.6062 18.3794C61.3515 18.6842 62.1512 18.8352 62.9569 18.8234C63.749 18.8326 64.5347 18.6816 65.2664 18.3794C65.9505 18.0948 66.5679 17.672 67.0795 17.1379C67.5924 16.6005 67.9944 15.9683 68.2629 15.2771C68.5451 14.543 68.6863 13.7628 68.6792 12.9768C68.6858 12.1929 68.5416 11.415 68.2545 10.685C67.9816 9.99296 67.5735 9.36175 67.0536 8.82795C66.5367 8.299 65.9187 7.8784 65.2359 7.59095C63.7811 6.99898 62.1509 6.99898 60.6961 7.59095C60.012 7.87796 59.3926 8.29858 58.8746 8.82795C58.3537 9.36269 57.9426 9.99349 57.6646 10.685C57.3715 11.4136 57.2242 12.1921 57.2307 12.9768C57.2238 13.7621 57.3623 14.5418 57.6394 15.2771C57.9 15.9672 58.2946 16.5995 58.8006 17.1379ZM60.5932 11.4332C60.805 10.988 61.1315 10.6065 61.5394 10.3275C61.9624 10.0575 62.4544 9.91393 62.9569 9.91393C63.4594 9.91393 63.9513 10.0575 64.3743 10.3275C64.7825 10.6063 65.109 10.9878 65.3205 11.4332C65.5431 11.9189 65.6583 12.4465 65.6583 12.9803C65.6583 13.5141 65.5431 14.0416 65.3205 14.5273C65.1102 14.9728 64.7834 15.354 64.3743 15.6307C63.9504 15.8984 63.4588 16.0405 62.9569 16.0405C62.4549 16.0405 61.9633 15.8984 61.5394 15.6307C61.1303 15.3533 60.8035 14.9717 60.5932 14.5258C60.3706 14.0401 60.2555 13.5125 60.2555 12.9787C60.2555 12.445 60.3706 11.9174 60.5932 11.4317V11.4332Z" stroke="#FEFEFE" stroke-width="0.5"/>
<path d="M73.7271 14.2807H73.8689L76.1868 18.642H79.4464L76.7953 14.0499C77.1242 13.9697 77.4347 13.8278 77.7102 13.6318C78.0442 13.4092 78.3304 13.0735 78.5688 12.6247C78.8072 12.176 78.9269 11.5926 78.9279 10.8747C78.9279 10.1522 78.782 9.52919 78.4902 9.00555C78.2142 8.49814 77.7991 8.07917 77.2932 7.79739C76.7589 7.50886 76.1586 7.36346 75.5509 7.37544H70.8145V18.642H73.724L73.7271 14.2807ZM73.7271 9.69691H74.5361C74.8784 9.69302 75.2149 9.78478 75.5075 9.96176C75.7997 10.1378 75.9456 10.4735 75.9451 10.9688C75.9446 11.4641 75.7959 11.8039 75.4991 11.988C75.1995 12.1656 74.8565 12.2573 74.5079 12.2529H73.7271V9.69691Z" stroke="#FEFEFE" stroke-width="0.5"/>
<path d="M84.0652 18.6414H86.9664V9.96108H89.4513V7.37476H81.5811V9.96108H84.0652V18.6414Z" stroke="#FEFEFE" stroke-width="0.5"/>
</svg>
