<svg width="26" height="51" viewBox="0 0 26 51" fill="none" xmlns="http://www.w3.org/2000/svg">
<path d="M25.1035 5.70735C25.1035 5.30903 24.9392 4.92703 24.6467 4.64537C24.3543 4.36372 23.9576 4.20549 23.544 4.20549H15.3242V2.89108H15.8483C15.8954 2.89138 15.942 2.88274 15.9857 2.86567C16.0293 2.84859 16.069 2.82341 16.1025 2.79155C16.136 2.7597 16.1627 2.7218 16.181 2.68002C16.1993 2.63824 16.2089 2.5934 16.2092 2.54806V0.968029C16.2089 0.922683 16.1993 0.877842 16.181 0.836062C16.1627 0.794283 16.136 0.756385 16.1025 0.724532C16.069 0.692679 16.0293 0.667495 15.9857 0.650418C15.942 0.633342 15.8954 0.624708 15.8483 0.625008H9.41728C9.37019 0.624708 9.32351 0.633342 9.27989 0.650418C9.23627 0.667495 9.19657 0.692679 9.16305 0.724532C9.12954 0.756385 9.10286 0.794283 9.08456 0.836062C9.06625 0.877842 9.05667 0.922683 9.05637 0.968029V2.54806C9.05667 2.5934 9.06625 2.63824 9.08456 2.68002C9.10286 2.7218 9.12954 2.7597 9.16305 2.79155C9.19657 2.82341 9.23627 2.84859 9.27989 2.86567C9.32351 2.88274 9.37019 2.89138 9.41728 2.89108H9.94288V4.20549H1.68448C1.27088 4.20549 0.874221 4.36372 0.581762 4.64537C0.289302 4.92703 0.125 5.30903 0.125 5.70735V11.1995H25.1051L25.1035 5.70735Z" fill="#F5F5FF"/>
<path d="M22.1085 14.3333L12.4001 24.3766L15.5806 21.0852L0.143341 37.0433V50.1548C0.143396 50.2412 0.170451 50.3256 0.220988 50.397C0.271525 50.4683 0.343201 50.5234 0.42669 50.555C0.510179 50.5866 0.601614 50.5933 0.689093 50.5742C0.776573 50.555 0.856045 50.511 0.91717 50.4478L11.2039 39.8103L12.1495 38.8283L24.3638 50.4994C24.4263 50.559 24.5057 50.5995 24.5921 50.6159C24.6784 50.6322 24.7678 50.6236 24.8491 50.5912C24.9304 50.5588 25 50.504 25.0491 50.4336C25.0981 50.3633 25.1246 50.2805 25.125 50.1958V38.0193L18.7894 31.9656L18.8083 31.9466L25.1219 25.4201V11.2173L22.3149 14.1193L22.1085 14.3333Z" fill="#F5F5FF"/>
<path d="M0.143341 32.4743L8.39623 23.9025V13.8486H0.143341V32.4743Z" fill="#F5F5FF"/>
<path d="M5.07697 50.6251H19.7735L12.1612 43.2949L5.07697 50.6251Z" fill="#F5F5FF"/>
</svg>
