<svg width="1060" height="487" viewBox="0 0 1520 699" fill="none" xmlns="http://www.w3.org/2000/svg"><g clip-path="url(#a)"><path d="m644.153 459.173-4.326 1.7-1.082-.618v-3.246l1.391-1.081 4.017.927v2.318ZM929.051 314.071l-1.39 3.708.154 1.237 2.472 4.481 3.554 4.481-.927 1.082-.927 2.936 1.081 3.091-6.025.463-3.863-1.391-2.008 2.164 4.017 1.082.772 1.699-.772 2.164-3.399 1.854.618 2.318-.773 1.082 1.7 2.472-.464 2.782-3.862.772-2.781 2.627-2.009 1.391-.154 2.936-3.708-.773-2.472.309-3.554 1.7-4.326-.309-4.017.309-2.935 1.082-1.545 2.009-4.635 1.854-7.725-1.082-7.725-1.39-4.017-.773-6.18-.464-13.287-2.317-1.7-.773-4.789-5.409v-3.554l-7.262 2.318-4.789-.309-5.253.464-2.163.927-1.854 3.4-1.7.618-3.244-.618-1.391-1.237-4.635-.463-.772-2.318-1.236-.464-3.09 2.936-3.554-.618-2.317-1.236-.618-1.545-5.099-1.237.464-1.236-1.7-3.863 1.545-4.636-1.39-1.082 2.626-.772 1.082-.773 5.407 2.473 1.391 2.163 1.854.464-.155 2.008 2.472-.772 1.545-2.473.309-2.936 4.326-.154 4.172.618 2.163 2.936 5.871-.773 1.699-1.39 6.026-2.318 8.806-.773.155-2.163 3.09.463 2.317 1.236 3.863-.772 1.699.772.309 1.7 1.854 1.391 2.627.618.463-2.318-.463-2.936-2.627-.463.927-2.009-.154-2.009-3.863-4.327.927-2.009 4.79-2.781 4.48-1.237 1.545-1.545 1.082-4.481 3.553 1.391 2.009-1.391.309-4.327 3.399 1.854 1.236 2.009 6.025.618 2.163-1.081 3.863.618.154-1.7 2.009-2.472h1.854l.463-4.945 1.854-.309 2.472 1.236 2.163-.618 7.416 2.627 2.318-.155 4.635 2.627 5.871.309 1.854-1.391 7.879 2.318 1.545 2.473ZM716.15 262.921l2.472-.772 1.236 1.236 1.854.155 4.635 3.554-.618 2.318 2.627 1.081.618 3.091-3.554 2.009-.927 2.627-2.626-1.082-2.009 2.009-2.163 3.863-.309 2.627 3.09 3.709-1.699 2.627-5.253.618-4.326-4.018-5.099-2.318-2.626-.154-.618-3.091-.927-.927 1.236-4.172-2.936.927-.772 2.163-2.009.927-3.399.464-3.553-.464-.773-.927 1.082-2.163-1.082-1.082.618-2.472-2.472-1.7-5.562-.618-1.39.463-.927-3.09-6.489-1.7-.773-3.091-2.472-2.781-4.944 1.545-4.48-3.708v-1.855l-1.391-3.399 7.88-3.864 7.261-2.627.464 2.009 1.854 1.082 1.854-.927 6.025 1.7 4.944-2.318.927-1.855 3.245.464-.309-1.391 2.163-1.082 2.317 1.237 2.318-1.546 1.699 2.009 3.863-1.236.772 2.473 4.017 2.163 2.936-.618 2.626 2.009 4.017 1.699-1.545 4.482-1.699 2.009 1.081 1.699ZM976.019 402.615l4.326-1.082 2.318 1.237-.773 3.863-2.472 4.172-.154 4.018.772 1.236 3.708 1.854 5.099 4.482-.464 1.236-4.789-.155-.773 1.237 4.944 5.717-.309 3.4-3.862-.464-1.082 1.237-4.944.772 2.163 3.4-3.553.309-3.09 2.627-.773 2.627.155 2.318-2.627.309-.772 1.081.927 4.636 1.699 2.473-.154 1.236-1.7 1.545-2.626-1.081-9.579-5.873-.927-1.39-2.472.154-1.7-.927.464-2.472-4.635-3.864-2.318-2.472-.618-3.4-3.708-1.699-7.725-6.336-2.626-3.091-4.326-3.554-3.554-3.709-2.008-6.181-5.253-4.945-2.936-2.008-.154-2.164.463-7.726 1.854-.927 2.781.618 2.627 2.781 2.781 1.546 4.171-4.945 4.944.463 2.318-1.854 4.171 2.472 3.863.155 4.326 1.082 2.626-.928 2.472 2.009 3.399-1.545 2.781.464 2.781-.309 4.017 1.081 3.399.309 1.7 1.236 2.008 3.4 3.399.309Z" fill="#5954A9" stroke="#EBEBEB" stroke-width="3" stroke-linecap="round" stroke-linejoin="round"/><path d="m784.284 336.013 1.237 1.7 4.016 2.009h1.854l1.391 1.082-1.545 4.635-.773 2.318.155 2.627 1.854.155 5.098 1.236.618 1.545 2.318 1.237 3.554.618 3.09-2.936 1.235.463.773 2.318-.773 4.791.773 2.781-2.936-.309-1.545-1.391-2.008.464-.927 2.781 2.318 5.409-1.855.463-2.163-2.936-1.081-.154-4.481 1.7-3.09-1.237-1.235-3.245-3.09.155v4.481l-.773 1.7-3.399 4.018-.309 1.545 1.081 2.627-1.854 1.082-1.39-2.164-2.009-1.854.618-1.854-3.399-.928-3.708-3.09-.309-3.863-1.545-.927-5.253 4.481.927 2.318-2.472 3.399-3.708 2.164-4.789-1.236-4.017 1.545-3.708.772-2.163-1.081-1.391-2.164-3.553-3.554.772-2.627-1.236-3.399-3.399-.464-2.935.155-3.554 2.318.773 2.008-3.554 2.473-2.163-.155v-1.545l2.318-1.545.463-2.318-1.236-1.082 1.7-4.481 4.635-3.4.772-4.481 3.245-1.391 5.871-6.181.927-1.391-2.009-1.7 2.781-2.163h1.7l1.236 1.236 4.171-.463 1.236-2.164 2.318-1.081 1.545.463 4.326.155 5.098-.927 4.017.309-.309-2.318 2.009-1.855h2.008l2.163 1.546 1.236-.309 1.7 1.39 5.716-.309ZM884.401 260.913l3.244-.619-.154-2.936 5.098 1.237.464 1.699 1.545 1.7 7.107 1.7 4.171 1.7 1.236 1.391 4.944-1.082 2.781 1.854-1.081 1.7-2.472 1.854 2.472 1.391 3.09 2.782 2.317 2.936 1.545.618 5.408-3.863-2.627-3.709h2.009l3.399.927 5.098 2.936 5.562-1.082v2.473l-2.163.773 4.172 3.554 1.545.927 2.781-1.545 5.407 2.781.773-.309 4.171 1.236.773 2.782 4.326 3.399.772 2.473-4.326.463-3.09 2.318-.927 1.237-3.553 1.854-1.082 4.636-2.472 1.236-3.244 2.936-2.318 1.082-2.626.309-5.562-.773-2.163 1.854-1.7 4.327-1.545-2.472-7.879-2.318-1.854 1.391-5.871-.309-4.635-2.627-2.318.154-7.416-2.627-2.163.618-2.472-1.236-1.854.309-.463 4.945h-1.854l-2.009 2.472-.154 1.7-3.863-.618-2.163 1.082-6.025-.618-1.236-2.009-3.399-1.855-.927-1.081-4.481-3.4h-2.008l-2.009-2.472-3.862-2.318-4.481-4.018h-2.008l-3.554-3.09-2.781-4.173-2.163-2.318 1.854-2.627-.927-2.472-3.553-2.009-3.863-5.254.773-1.082 2.935 3.091 2.936-4.018 1.699-.927 4.017-.927 3.245.618 1.236-2.009 3.09-.464.927-1.545 2.472-1.081 1.699.154.927-1.854 6.798-1.546 5.408-2.317 2.935-.928-2.317-2.318 1.236-.927 3.399.618 2.317 2.318v1.391l2.163.927 1.391-1.081Z" fill="#5954A9" stroke="#EBEBEB" stroke-width="3" stroke-linecap="round" stroke-linejoin="round"/><path d="m867.406 190.911-5.253-.154-.309-2.627-1.699-1.545-.155-1.546 7.262 4.018.154 1.854Zm-53.766-12.516h-2.781l-2.163-1.082 1.236-1.545 2.627.618 1.081 2.009Zm43.724.772-2.009 1.082h-2.008l-2.009 2.009-3.244-1.7-.773-1.7.155-3.399.927-2.164 3.09-1.391 1.39 1.855 2.627.927-.773 2.627 2.627 1.854Zm-71.997-10.199 2.781 1.082 2.472 2.473.154 2.163-2.626 2.472 4.944-.463 1.236 1.854 2.626-.618 6.953 2.782 4.944-1.391 1.081 2.163-.927 2.318-3.399 2.473 2.163 1.854 3.245-.309 5.562 1.391 5.098-3.864 1.7-.772 5.562-.464 7.879-6.954 8.189 1.391 2.317 2.936 5.717 3.245 4.944-.309 2.008 3.091 1.236 3.863 2.936 2.009 4.326.772 1.081 4.018 2.781 6.336-.463 4.172-2.936 2.782-1.081 2.472 2.472 2.163 5.098 3.246 2.163 2.627-.927 4.017 3.09 3.554 1.236 2.936-1.081 4.018-1.236 1.7 2.935 4.79v2.473l3.399 1.391 2.472 4.944-.618 3.555-2.472 5.563-1.39 1.081-2.163-.927v-1.391l-2.318-2.317-3.399-.619-1.236.928 2.318 2.317-2.936.928-5.407 2.318-6.798 1.545-.927 1.854-1.7-.154-2.472 1.081-.927 1.546-3.09.463-1.236 2.009-3.244-.618-4.017.927-1.7.927-2.935 4.018-2.936-3.091-.772 1.082 3.862 5.254 3.554 2.009.927 2.472-1.854 2.627 2.163 2.318 2.781 4.173 3.553 3.09h2.009l4.48 4.018 3.863 2.318 2.008 2.472h2.009l4.48 3.4.927 1.082-.309 4.326-2.008 1.391-3.554-1.391-1.081 4.482-1.545 1.545-4.481 1.236-4.789 2.782-.927 2.009 3.862 4.326.155 2.009-.927 2.009 2.626.464.464 2.936-.464 2.318-2.626-.618-1.854-1.391-.309-1.7-1.7-.773-3.862.773-2.318-1.236-3.09-.464-.154 2.164-8.807.772-6.025 2.318-1.7 1.391-5.871.772-2.163-2.936-4.171-.618-4.326.155-.309 2.936-1.545 2.472-2.472.773.154-2.009-1.854-.463-1.39-2.164-5.408-2.472-1.081.772-3.399-1.854-7.88-3.554 1.545 2.472-5.716.309-1.7-1.39-1.236.309-2.163-1.546h-2.008l-2.009 1.855.309 2.318-4.017-.309-5.098.927-4.326-.155-1.545-.463-1.7-2.009v-2.318l.927-3.091-.309-3.708.464-2.318 1.545-2.782 2.163-8.499 5.407-5.872-.154-2.009-2.472-.927-7.416-1.236-3.09-2.164-4.635.928-3.245-.155-.463-1.391-2.163-.618-2.781 1.082-5.408-6.645-2.163-.154.927-4.636 1.391-1.391v-2.163l-4.326-1.7-2.318-2.473-.463-3.399.927-2.627 3.553-2.009-.618-3.091-2.626-1.081.618-2.318-4.635-3.554.927-3.709-2.936-1.854.773-1.237 3.399-2.472-1.082-1.854 2.009-4.327v-1.855l-4.79-6.335 1.082-1.7 2.781-1.082 3.553 1.237 6.953-2.009 1.081-1.546-1.545-1.39.464-1.391 4.017-2.473.927-4.017-1.236-1.546-4.017-.463-1.082-1.545.927-2.473 4.79.155 1.699-5.872 1.082-2.627-.155-6.645-2.626-2.164.772-4.172 1.7-2.163 1.39-.618 6.18-.464 6.953.155 2.935 3.399-.927 1.855 2.472.463 1.391-3.708 2.163 1.236 1.699-.155-.772-2.627.309-2.472 1.39-2.164 5.099.928 5.562-.464.154-.927-4.326-.773-1.39-1.7-.309-6.026-2.318-1.236-2.472.463v-2.318l5.253-1.7v-1.545l-5.253-5.872-.309-2.472 4.172.154 8.034 2.009 4.789-1.082 2.318.618Z" fill="#5954A9" stroke="#EBEBEB" stroke-width="3" stroke-linecap="round" stroke-linejoin="round"/><path d="m814.258 167.423 3.244 1.545 3.708.464.618 2.936-5.407 1.081-7.88-3.245.155-3.863 3.553-.309 2.009 1.391Zm21.166-1.7-3.553.155-2.936 1.545-.463-1.855 2.472-1.545 1.854.309 2.626 1.391Zm-44.496 1.854-1.854.309-2.626-.772-.927-3.554 4.171 1.699 1.236 2.318Zm12.36 3.091-2.163-2.318 3.863-4.481 1.081-.309-2.781 7.108Zm77.405-6.181-3.708-.309-3.708-1.546.154-3.09.773-1.391 6.952 3.554-.463 2.782Zm-80.495-13.444 3.554 6.645-.155 4.326-2.781 1.855h-3.244l-8.343-2.627-2.627-4.482-.154-3.554 7.416-2.163 4.017 1.236 2.317-1.236Zm35.999.309-1.545.927-1.082-1.391 1.391-1.39 1.236 1.854Zm-36.926-4.327h-1.39v-4.636l2.317 2.473-.927 2.163Zm34.917 0 .155 2.318-1.082 1.082-3.09 1.081-1.699 2.782 3.09 1.854.772 2.318-1.545 1.082-4.017 1.082v8.653l-3.399.927-2.317-3.245-.155-1.391-2.008-4.79-3.09-.618-3.399.155-2.318-2.782.155-3.245-1.545-3.091-2.009-.927.618-2.163 4.79-.309 2.317-2.936v-1.391l2.781-.309 1.236 1.082.155 4.017 2.472.773 1.699-4.481-1.39-1.7 6.025-3.4 1.7-.154 4.635 1.39-.618 3.246 1.081 3.09Zm-48.822 21.943-2.317-.618-4.79 1.082-8.034-2.009-4.171-.155-.773-3.245-1.236-2.163 1.7-.464-1.391-6.026-4.944-2.009-3.862-2.164.772-8.653-1.545-3.554.155-10.663 2.008-.154 4.79 1.236 2.317 1.391.927-2.936 2.472-2.473 3.09-1.236 2.472 2.009.464-6.954-2.472-.773-2.009.619-2.008 2.936-1.545 3.708-2.936.309-2.317 1.082-3.708-2.163.154-2.164 2.472-2.936 3.09-2.936h3.399l2.472-.927 6.026.154 4.326-2.008 4.326-5.563 2.317-2.318 5.099-.773 4.635-2.627-1.236 3.863 1.854 2.627v4.636l-1.391 1.545-2.163 3.864.309 8.653 3.863 2.318h6.334l1.545 1.7-1.081 3.399-4.017 2.164h-1.391l-2.163-1.7-1.699 1.391-1.854 7.881-3.09-.155-1.854.773 2.163 1.854-2.009 1.236-5.253 4.791 1.7 5.254-.309 1.391-2.318 2.008-.927 1.7 3.554.464 2.008 4.481ZM591.159 264.931l-2.472 2.009-2.008.309-3.863-1.855v-.772l3.863-1.7 3.09.927 1.39 1.082Zm-56.392-61.348 2.008 1.391-5.253 2.936-1.854-.927-1.39-1.855-.155-2.936 1.854-.772h2.781l2.009 2.163Zm-35.999-17.616-3.244.618h-4.481l.155-2.318-2.163-.773-2.781-4.172-2.009-.772-2.935 2.472.772 1.391-3.708 2.781-4.48-.463-1.236-1.082-3.245-.618-.309-1.545-4.171-3.091 1.545-2.163 4.48-1.391-1.545-2.164.309-1.236 2.472.155 3.399-1.236 1.854-2.473 1.545-3.554 2.936-1.391 2.008.927 2.936-3.09 4.326-.155 4.171-1.081 6.026.463 1.699 1.7.773 2.627 2.008 2.627 2.627 2.163v1.391l-3.09 1.7 5.407.463 1.854 3.864-3.244.463-.155 2.164 1.7.309-.927 2.163-4.017.927-2.163 3.4-1.545.773-3.554-.773Zm21.167-31.215-4.017-.772-.927-3.091 1.39-2.163 2.781 1.081.927 2.009-.154 2.936Zm-17.768-10.971 1.082 5.254-3.708 2.009-1.236-3.709-2.163 1.545.309-2.936 2.317-.463 3.399-1.7Zm2.627 2.627-1.7-1.855 2.472-3.399 2.627-1.546-.155 2.473-3.244 4.327Zm3.862-12.053-7.107 1.236.927-4.636-2.935-1.391.463-1.391 3.245-.772 2.626 2.627 3.245.927-.464 3.4Zm-25.029-17.617-2.317-.309-.618-2.163.309-3.554 2.472.309.154 5.717Zm19.776-8.808-.154 4.327 4.48 1.236 3.09-.154.618.927-5.098 4.172-1.082-.154-.309-3.4-2.163.464-2.935-.464-1.854-2.936-4.172-.773-1.39-1.7 2.163-.927.463-1.854 4.326-.927 2.318-1.082 1.39 1.545.309 1.7Zm-18.385-4.018 1.854 1.391-1.7 2.009h-2.317l-3.399-1.545.309-.773 5.253-1.082Zm18.231-15.298-2.472 4.018-1.545 1.082-.309 2.627-4.635 2.472-4.944 3.709-2.163-1.546 4.017-2.627-3.245-1.545-.309-4.017 1.236-1.082 2.163 1.082 2.936-.464-1.082-1.854 9.734-4.945.618 3.09Zm53.766-3.4v1.855l-2.009 2.472-3.399 1.855-6.489 4.326-3.862 2.01-.773 2.472 2.163.154.309 1.237-3.399 2.472-.927 2.318 4.635-.618 8.189-2.318 5.562.773 4.017-.464 10.66.309 2.936-.464 3.553 2.009 1.545 2.627-4.326 5.254-1.236 3.554-3.09 5.409-2.935 3.09-3.09 3.864-3.245 1.699-4.789.773 6.952 2.936-2.163 2.782-3.708.154-3.553 2.627-3.245 1.082 5.562 1.7 3.708-1.546 4.172-.154 8.034 2.936 5.562 5.254 3.09 2.318.772 1.7 3.245 10.662 2.317 5.872 2.472 2.782 6.953 2.472 1.699.927 5.253 5.1 5.253 3.708-2.163 2.318.618 1.855 3.245 4.481.463 2.472-2.008-.154-3.554-2.164-.463 1.082 7.725 5.1 2.472 3.09 1.545 4.172-.927 1.7-4.635 4.172 4.326 2.164 1.854-.309 3.09-3.245 2.626-.309 6.489.463 5.871 1.545 5.099 3.246 1.081 1.699.618 4.791-3.399 8.962-4.326 2.936-.772 2.627-3.245 1.391-2.626-.463-3.708 1.854 2.626.927v2.627l-1.699.927-3.863.309 1.7 3.091 3.862.618 6.644-.309 2.935.309-.309 4.172-.618.618-5.871 2.627-1.545 2.782-3.399-.155-1.699 1.082-8.807 2.936-7.57-1.236-4.481.154-6.18.927-6.489-1.854-2.781-.309-4.326 2.627-6.489.773-3.09-.309 1.391 2.318-1.391.618-5.871-.773-1.545.773-2.163-.309-4.171-2.164-4.017-.154-7.571 1.854-1.545 2.009-2.008 5.408-1.7 1.855-2.163.309-6.952-3.863-2.318.772-3.862.464-4.172 1.082-6.025 3.708-1.391 2.318-2.008.309-1.7-1.391-2.163-.463-3.553 1.236-.464-2.009 1.545-1.545 4.326-1.082 3.863-2.936 3.399-3.554 7.107-5.872 1.236-4.79 4.171-1.082 2.163-3.863 6.335-.927h4.326l4.326.772 4.48-.154 1.7-1.082 2.935-3.709 5.562-4.636-7.261 1.546-5.871 3.554-4.944-.618-3.554-2.936-3.244-1.237-3.245.619-1.081-1.391-3.708-2.627h-4.017l-5.562 2.627-4.017-1.855-1.391-3.554.464-2.163 1.699-1.082 3.863-.927 5.871-2.627 3.399-1.082 4.326-2.936 1.854-3.554-.464-3.09.773-2.164-1.391-2.627.464-2.318-4.635.464-4.172 1.854-1.081-1.7 4.326-2.781 1.545-2.163 4.017-2.627 5.562-2.009 2.935.154 5.717-1.081 4.171 2.008-1.236-3.245 1.854-.618.155-3.708 2.472-3.4-1.854-.927.154-3.091 2.318-1.236 1.081-4.018-2.626-.772-3.245.927-2.626-2.318-4.326-5.563-.464-2.164 2.472-4.79 3.554-3.091-2.936-1.236-2.163.309-4.171 1.855-3.09 2.009h-3.245l-1.236-1.391-1.699.154-3.863 1.7-5.407-2.009-1.7 3.554-4.017-3.863-.463-2.936h2.008l1.854-3.709 4.481-6.181.927-1.854-.773-2.163-2.935-2.318.463-4.018 1.236-1.545 2.318-.618-2.936-1.855-4.48 1.391-2.781 1.391.463-3.091-.927-.618-2.317 2.163.154 5.1-3.244 8.808-1.7 1.391-2.163-.773 1.7-6.026 2.163-3.864-.927-.463.463-5.563 1.545-4.482 2.627-5.872 3.399-5.408-6.335 4.172-1.545.773-3.708-.618-1.236-1.082-1.545-3.554 2.781-.309 2.627-1.7-2.318-1.082 2.318-1.391 2.626-3.245.618-2.936-1.545-2.318-2.472-.927-.309-1.391 2.627-2.936-1.082-2.317 2.472-4.79 4.635.154 2.936-.618-3.554-3.091 1.082-4.481 5.716-.464-1.236-2.781.464-3.091 2.472-1.39 2.008.308 1.545 1.391 4.017-1.39.927 1.236 4.326-.928 5.717-.463 6.952-.927 3.399-.619 3.554.31-.927 2.627Zm-.927-6.18-2.009.154-2.008-2.163 2.317-.464 1.7 2.472Zm2.008-5.255 4.172.928-.927 2.163-2.163-1.082-3.09.464-2.936-1.545.618-3.245 2.627-.155 1.854.773-.155 1.7Zm5.717-3.554-1.545.464-.618-1.854-2.627-.928.618-1.236 4.172 3.554Zm24.874-30.133 2.472 2.782 1.545.773-2.008 5.872-.309 2.472-1.545 2.627-1.236-.618 1.39-4.481-.772-1.7-2.627.463-.618-1.39 2.472-2.164-1.236-3.09-1.699-.31 2.317-2.472 1.854 1.236Zm4.481.618-2.163-2.008 2.008-.928.155 2.936ZM934.304 447.428l3.553.618-1.699 1.391-1.854-2.009Zm19.93 2.318 2.472-.154.927 1.39 9.579 5.872 2.627 1.082 1.854 2.936-7.416-4.79-6.798-3.863-4.79-1.082-6.643-3.091-.773-1.39 8.961 3.09Zm-9.733-5.408-1.236.154-8.652-.154-2.627-.464-.772-2.009 2.781.309.772.928 9.734 1.236Zm-8.189-3.554-3.09.154-4.017-1.236.464-1.7 7.416.927-.773 1.855Zm-32.754-25.498-.463.619-5.099-4.173-.463-2.936 4.326 4.172 1.699 2.318Zm-7.57-10.044-2.936-.309 1.236-1.7 1.7 2.009Zm-6.489 2.318-1.391-.155-2.626-6.49.618-1.854-1.236-3.091 1.39-.463.773 3.245 1.545 1.391-.155 2.472 1.082 4.945Zm5.716-7.572-2.317.464-1.545-1.546-2.009-.309-1.545-1.545 1.545-1.082.773-1.854 5.098 5.872Zm76.478-22.716-1.082 2.318 2.472 4.173.309 2.472 2.009.618-.618 3.091 1.854 1.545 4.635 1.545 1.39 2.318-3.553.155-2.627.618 1.082 4.018-1.545 2.472-3.399-.309-2.009-3.4-1.699-1.236-3.399-.309-4.017-1.082-2.781.309-2.781-.463-3.399 1.545-2.472-2.009-2.627.927-4.326-1.081-3.862-.155-4.172-2.472-2.317 1.854-4.944-.463-4.172 4.944-2.781-1.545-2.626-2.781-2.781-.618-1.854.927-.464 7.726.155 2.164 2.935 2.008 5.253 4.945 2.009 6.181 3.553 3.709 4.326 3.554 2.627 3.091 7.725 6.335 3.708 1.7.618 3.4 2.317 2.472 4.635 3.864-.463 2.472-5.408-4.327-4.017-2.318-4.789-4.326-5.871-1.7-4.172-1.855-5.098.928-2.781-.31-1.082-3.399-8.961-6.027-6.643-6.181-1.236-2.009 4.789-1.854-2.163-1.236-6.025-5.254-1.854-2.473-.155-6.335-1.236-2.627-4.48-3.4-1.7-1.7-3.244-1.081-2.163 1.39-.464 2.936-4.635 7.727h-2.008l-4.79-6.49-.772-2.936-2.009-6.027 1.082-.773.772.927 5.099 1.237 2.163-2.009 1.699.772 5.562-.154.927-.464 1.854-3.399 4.017 3.245 2.318 1.082 2.008-.773 3.09 1.082 2.472.309 1.854-.618-1.236-3.555 1.082-1.081-1.545-1.7 3.244-1.545 3.245-.928.618-1.699-.309-3.4-1.391-1.391.618-2.163 6.798-2.627 1.082-1.545h3.09v-2.627l1.39-1.237 3.863.928 4.48 1.854 2.627 1.854 1.39 2.009 4.172 2.782 3.399 3.399 2.008 1.082 3.863.927 2.008 2.009 5.099 1.391 7.57.309 3.863-1.391 1.699-2.163 4.481-.619Z" fill="#5954A9" stroke="#EBEBEB" stroke-width="3" stroke-linecap="round" stroke-linejoin="round"/><path d="M1026.7 318.552h2.31l2.17 3.554 3.39 1.236 1.4 1.7 3.55.618 1.39 1.082 1.08 2.627-3.4 3.554-7.11 1.7-2.93 3.709-1.85 1.545.15 2.627-2.16 2.163-1.08 3.863-2.17 2.318v1.855l-2.47 4.172.31 2.009-3.25 2.318-2.31 7.263-2.01 1.39-4.02-.463-3.86 3.09-2.16-.772-4.948 1.39-1.545-.772-4.326-.464-1.699.309-4.481-.618-1.545.464-2.317 2.472-3.399 1.545-2.472-.772-3.245 2.009-4.48.618-1.7 2.163-3.862 1.391-7.571-.309-5.098-1.391-2.009-2.009-3.862-.927-2.009-1.082-3.399-3.399-4.171-2.782-1.391-2.009-2.626-1.854-4.481-1.854-2.935-3.4-2.163-5.099-3.708-.155 2.781-2.627 3.862-.773.464-2.781-1.7-2.472.773-1.082-.618-2.318 3.399-1.854.772-2.164-.772-1.7-4.017-1.081 2.008-2.164 3.863 1.391 6.025-.464-1.081-3.09.927-2.936.927-1.082 3.244.464 6.489 4.172 2.472 1.082 7.262.154 10.815-.618.926-1.545-.772-2.009.618-1.545 2.163-1.082 6.644-.618 3.708-.927 1.544-2.318 1.082-.309 5.408 2.163 7.725-3.863 2.472-5.409 2.781-.618 4.168.155 3.87.927 7.1-1.082 2.17 1.391 3.39 3.4.93.309 6.65-1.7ZM498.768 185.966l1.081 1.7-3.399.618 2.318 8.036.927 1.39v6.336l1.39 4.945.155 3.863-2.009 2.782-1.39 3.245-.309 2.781-2.472 3.245-2.318 1.391 2.472 2.318-4.326 1.236-4.017-.463-2.008 1.236-6.026.309-5.716 1.082-2.627 2.781-3.862 1.082-1.545 1.545-3.554 1.236-2.626-1.854-1.545.309.309 3.245-4.481 2.009-2.781.464-1.545 1.081-8.961 2.164-2.935-.773-5.099 1.236-1.854-.154 2.472-2.782 2.472-2.009-5.871.928-2.163.772-.927-.927 4.944-2.936-5.098.155-4.635-.619-.618-1.545 4.48-3.554 3.708-1.391-.154-1.39-7.88.154.773-1.7 2.626-1.545 2.781-.155 2.318.928 1.699-1.237-.927-2.627 6.026-3.554 4.635-.463 5.098-1.082 5.099-1.236-3.708-1.855-3.554 2.782-4.017.464-2.935-.773h-3.245l4.172-3.091 2.472-2.627-1.236-1.081 3.09-3.555 5.562-1.545-2.472-2.009-6.026.309-2.163-2.008-4.017.154.618-1.854-5.407-.309.772-1.546-.927-1.699 4.326-.928-.309-3.09 2.936-1.236 3.09-.618.154-1.7-3.09-.309-3.09.618 1.236-3.245-1.236-1.546-.618-2.627-1.39-1.545 4.326-.309 1.854-.773 7.261.155 2.936 2.009 2.626-1.855 7.416 1.391.927-4.018 5.871-2.317 1.854-3.091-5.716.618-5.562-1.545 1.081-1.236 3.245-1.082 2.935-2.473-.463-1.699 2.626-4.173 4.79-1.236h3.708l2.472-1.391 1.854 3.091-1.545 1.545.927 1.391 1.854-1.236-.773-3.245 1.391-2.009 2.935-.464.927-1.236 4.944 2.627-3.862 2.318-.773 1.082-2.935 1.39-1.545 3.555-1.854 2.472-3.399 1.236-2.472-.154-.309 1.236 1.545 2.163-4.481 1.391-1.545 2.163 4.172 3.091.309 1.545 3.244.618 1.236 1.082 4.481.464 3.708-2.782-.773-1.391 2.936-2.472 2.008.773 2.781 4.172 2.163.772-.154 2.318h4.48l3.245-.618ZM921.017 562.397l-1.854 3.863-4.326 6.645-2.317 7.881.463 3.091 2.472 2.163-1.081.773 2.472 2.781.154 2.009-2.781 2.936-.618 2.627.155 2.318-4.481-.927-2.163.463-5.716-2.163-2.936-4.327-4.635-3.09h-4.635l-2.163-.773-4.48-2.936-4.635-2.164-4.017-3.245-2.627-.618-2.317-1.545h-4.481l-3.553-2.472-2.009-3.555 2.009-5.717 2.163-1.236 1.39-1.855 3.554 3.554 2.781-1.236 2.163-2.472 3.708.154.772 1.391 2.163.464 3.863 2.472 2.163.618 5.253-1.545 4.635.618 4.326-.773 2.626-.927 1.854-1.545 2.163-.464 5.408.464 3.09-1.854 1.236.309 3.09-1.855 1.699 1.7Zm-120.973-64.129 1.081 1.391 2.781 7.726-.927 2.473-2.008 3.09 1.236 4.327-.927 17.771-.927 4.481-1.391.618-4.48-1.854-2.318.463-1.854-.927-.463 4.636-2.781 3.245-4.635-.309-1.082-.927-3.708-5.872-.618-6.645.927-2.009v-3.863l1.7-.155v-2.627l-2.781-1.854v-2.936l1.081-2.163-.154-4.018-1.236-1.391-1.236-3.554-3.399-3.709.154-5.254 5.253.928 2.009-.464 4.789-2.318 3.245-3.863 2.163-.773 2.317-2.781 1.082 1.39 3.399 1.237 1.854 2.318 1.39.772-1.081 2.164 1.545 1.236Zm12.823-47.595.464 2.164-3.863.772-1.699-1.7 4.48-.309.618-.927Zm58.556-87.463-.309 1.391-5.099 3.554 1.082 2.164 3.553 1.081-2.472 3.245.464 1.546 2.008.309-.618 3.09 2.936 1.7 2.317 2.009.309 2.009-2.317.154 1.081-.927-3.09-3.399-3.09 1.39-4.944-1.39-3.244 3.09-2.318.618-2.626 1.7-4.944 1.854-2.781-.618-1.545 1.082-.618 4.79 1.236.928 2.317 4.017 2.627 1.7-1.082 2.936-1.39 1.082-2.009-.773-.463 2.627 1.39 6.954 2.163 4.945 1.854 2.009 4.172 3.399 4.171 1.7 7.88 5.718 4.326 1.699 1.081 1.082 2.781 4.327 2.472 4.945 2.781 7.881 2.009 3.863 3.553 4.481 7.416 6.336 6.644 4.481 6.18 2.936 4.635.464 10.815-.618 4.017 1.081.618 1.855-.618 1.391-4.481 3.245v2.627l2.318 1.854 10.969 4.945 11.124 4.018 3.399 2.163 4.172 3.245 9.888 4.481 1.699 2.164 6.18 4.636 2.781 3.708.773 2.782-2.318 6.799-2.472-.773-2.935-2.008-4.79-8.345-7.725-.773-4.48-2.008-1.082-2.164-3.553-.618-2.009 1.391-2.163 3.09-2.317 4.636-2.318 6.645v2.627l1.7 2.627 4.48 1.545 3.708 2.318 2.472 2.473.464 5.872 1.39 3.245-1.39 2.009-2.936-.464-3.862 1.082-2.627 2.163-1.081 2.164.772 5.253-.463 2.164-5.099 3.863-2.472 3.863-1.545 3.554h-6.643l-1.7-2.318-.154-3.399.927-2.009 2.472-1.082 1.39-4.327-.772-3.09 1.699-2.472 4.326-1.082v-4.482l-2.163-2.008-2.163-7.881-3.708-6.645-2.163-5.872-1.699-2.782-2.163-1.545-5.717-.463-7.107-4.018-.463-1.7.927-1.7-1.7-4.327-3.09-2.627-4.017.928-1.854-.155-.154-2.318-3.09-2.009-4.172-.309-1.081-1.082-4.017-6.181-2.627-2.627-3.553.155-6.026-1.391-3.09 1.082-4.944-4.018-4.326-1.391-8.806-8.19-2.781-3.09-5.408-3.4-3.553-4.945-2.781-1.854-6.18-2.163-.464-2.009-4.789-4.791-2.627-1.545-2.008-3.245-3.863-.773.155-4.172-1.854-5.408-2.627-3.4-1.854-8.19-1.236-2.318-2.781-1.7-6.18-1.854-8.806-5.254-1.7-.155-5.253-2.009-3.244-.309-4.017 1.855-4.79 4.945-3.862 5.254-1.391.927-5.253 1.854-4.635.773-.309-2.318 3.245-4.018-.464-3.09-5.098.927-7.88-3.709-1.39-1.391-.155-2.163-1.081-2.009 2.163-3.863 1.236-1.082-.773-2.627-4.944-2.163-2.317-4.791 1.236-.618 2.935.309 2.627-2.009 1.854-.463 1.236-3.863-2.781-2.473-2.627-4.018-1.39-.927-.155-2.472 4.017-2.627 2.163 1.082 3.708-.773 4.017-1.545 4.79 1.236 3.708-2.163 2.472-3.4-.927-2.318 5.253-4.481 1.545.927.309 3.863 3.708 3.091 3.399.927-.618 1.854 2.008 1.854 1.391 2.164 1.854-1.082-1.082-2.627.309-1.545 3.399-4.018.773-1.7v-4.481l3.09-.155 1.236 3.246 3.09 1.236 4.48-1.7 1.082.155 2.163 2.936 1.854-.464-2.318-5.409.927-2.781 2.009-.464 1.545 1.391 2.935.309-.772-2.781.772-4.791 4.635.464 1.391 1.236 3.244.618 1.7-.618 1.854-3.4 2.163-.927 5.253-.463 4.789.309 7.262-2.318v3.554l4.789 5.409 1.7.772 13.287 2.318 6.18.464 4.017.772ZM792.473 350.539l-1.854-.155-.154-2.627.772-2.318 1.7 3.864-.464 1.236ZM724.494 278.219l.463 3.4 2.318 2.472 4.326 1.7v2.164l-1.391 1.39-.927 4.636-2.008-1.081-3.09.927h-2.163l-3.245-1.855 1.7-2.627-3.09-3.708.309-2.627 2.163-3.863 2.008-2.009 2.627 1.081ZM982.508 434.603l.618 1.854 4.017 2.627 2.935 3.09 4.635 2.473 3.245.773 8.192 4.481.15 1.545-2.47.618-.31 1.082-3.09.618 1.39 2.318-.31 2.009-5.252 1.854-1.236-3.245-1.699-.464-4.944 8.19-1.236.464-3.863-.309 2.472 2.936 2.627 1.236.463.927v4.791l-3.244-1.855-1.391-2.781-4.789-4.481-5.408-3.091.155-1.545-2.472.154-1.854-2.936 1.699-1.545.155-1.236-1.7-2.473-.927-4.636.773-1.081 2.626-.309-.154-2.318.772-2.627 3.09-2.627 3.554-.309-2.163-3.4 4.944-.772ZM1020.21 179.785l.92-.927 3.56 1.082 6.95 3.399 1.7 1.391 1.23 4.636 3.25 7.881 4.48 7.572 2.63 5.563 1.39 6.026-.93 2.473-6.18 2.627-1.24.772-3.09 4.173v1.854l5.1 2.009 2.78 1.545 1.24 1.546-.31 3.708.62 1.7-1.24 2.318.16 2.009 1.54 2.472 1.86 2.782v2.009l4.17 4.326 2.93 4.327 2.17 1.545-1.86 2.009 2.78 4.018.16 2.009-1.86 2.781-4.63.773-7.42 7.108-3.71 4.173-5.25 6.799-.93 1.545 2.32 5.872-.15 2.782 2.93 2.163-.62 1.391-5.09-1.082-1.39-.309-8.81-2.936-1.24-2.163-1.54-1.082-4.79-1.545-5.56-.464-4.95.309-2.16 2.318-2.782-.154-3.707-1.546-4.635.155-3.554 1.545-1.7 3.245-2.626-.927-2.163.618-.927-4.172-2.163-.618-4.635-4.636-3.399 2.009-1.545 2.627h-3.399l-.773-2.318-2.008-.309-.772-2.473-4.326-3.399-.773-2.782-4.171-1.236-.773.309-5.407-2.781-2.781 1.545-1.545-.927-4.172-3.554 2.163-.773v-2.473l-5.562 1.082-5.098-2.936-3.4-.927h-2.008l2.627 3.709-5.408 3.863-1.545-.618-2.317-2.936-3.09-2.782-2.473-1.391 2.473-1.854 1.081-1.7-2.781-1.854-4.944 1.082-1.236-1.391-4.172-1.7-7.107-1.7-1.545-1.7-.463-1.699-5.098-1.237.154 2.936-3.244.619 2.471-5.564.619-3.554-2.473-4.945-3.399-1.39v-2.473l-2.935-4.79 1.236-1.7 1.082-4.018-1.236-2.936-3.09-3.554.926-4.018-2.163-2.627-5.098-3.245-2.472-2.163 1.082-2.472 2.935-2.782.463-4.172-2.781-6.336-1.081-4.018 4.326 1.391 1.081-.773-.154-2.781-6.334-1.082-.155-1.854 3.09.618 5.871-2.163 10.042-2.782 10.661-2.627 5.098-.772 3.09-3.4 2.936-2.627 5.871-1.082 2.008-1.236 4.326-1.854 10.198-1.855 8.497-.618 8.343 3.554-1.39.464-4.635-1.854 3.399 5.408 1.699 1.854 3.09 1.391 2.627.464 7.57-.773 3.399-1.7.772.155 10.198.618 35.379 1.391 10.82.154ZM462.77 587.585l-1.854.309-6.952 3.863h-2.009l-3.862-1.699-6.953-.619-2.317-.463-2.781 1.082h-2.318l-1.699 1.545-1.236-.464 1.545-3.245 2.472-6.336v-4.017l.618-3.4-.464-3.245-1.081-2.163 1.699-5.409v-2.781l-1.39-3.555 4.326.464-2.627-2.163h-2.317l-3.554 1.39-2.317.155.154-2.163-.772-2.782 3.09-.927 2.472-2.627-.464-2.472-1.854 1.699-.927 2.164-4.326 1.081-2.317-.772v-2.936l.927-2.627.618-3.554 1.236-3.4-.309-2.163 2.472-2.009 2.163-2.936 6.643-13.753-.927-1.546 2.627-10.198 1.854-3.555.927-6.644-.309-3.091-1.082-3.09-1.081-6.645v-2.164l-1.391-2.781.155-1.545 2.163-2.627 1.854-1.7 2.935-1.391 6.335-1.545 1.545 2.781-2.009 2.936 1.391 2.009 4.635-1.7 4.48-.154 3.399 1.236h2.163l3.863-1.391 1.236-2.163 2.317.773 8.034.154 1.082 1.7.154 4.79 2.936.309 2.935 1.391.464 1.7-3.863 3.863-3.244 1.7-2.472 2.163-1.7 2.473-3.09 2.472 1.236 3.091.618 5.408-.618 5.872.618 1.7-4.171 3.245-.309 1.545 2.163 2.009v2.936l-2.627 5.409-1.545.773h-6.643l-1.7.463 1.7 2.936 2.163 1.855.463 2.936 2.472 4.944 2.627.619.772 1.236-.927 3.709-4.944 4.635-1.39 6.181 4.635 6.645 2.626-.309-1.081 3.709-3.245.927-5.407 6.645-1.236 3.399 1.699 9.89Z" fill="#5954A9" stroke="#EBEBEB" stroke-width="3" stroke-linecap="round" stroke-linejoin="round"/><path d="m1032.57 302.944-2.32 4.636-1.24 4.481-2.47 2.627.15 3.864-6.64 1.699-.93-.309-3.39-3.399-2.17-1.391-7.1 1.082-3.87-.927-4.169-.155-2.781.618-2.472 5.409-7.725 3.863-5.407-2.164-1.082.309-1.545 2.318-3.708.928-6.643.618-2.163 1.081-.618 1.546.772 2.008-.927 1.546-10.815.618-7.261-.155-2.472-1.081-6.489-4.173-3.245-.463-3.553-4.481-2.472-4.482-.155-1.236 1.391-3.709 1.699-4.326 2.163-1.855 5.562.773 2.627-.309 2.317-1.082 3.245-2.936 2.472-1.236 1.081-4.636 3.554-1.854.927-1.237 3.09-2.318 4.326-.463 2.008.309.773 2.318h3.399l1.545-2.627 3.399-2.009 4.635 4.636 2.163.618.927 4.172 2.163-.618 2.626.927 1.7-3.245 3.553-1.545 4.635-.155 3.708 1.546 2.782.154 2.16-2.318 4.95-.309 5.56.464 4.79 1.545 1.54 1.082 1.24 2.163 8.81 2.936 1.39.309ZM925.034 363.828l-3.863-.927-1.39 1.236v2.627h-3.09l-1.082 1.546-6.798 2.627-.618 2.163 1.391 1.391.309 3.399-.618 1.7-3.245.927-3.244 1.546 1.545 1.7-1.082 1.081 1.236 3.554-1.854.618-2.472-.309-3.09-1.081-2.008.772-2.318-1.081-4.017-3.245-1.854 3.399-.927.464-5.562.154-1.699-.772-2.163 2.009-5.099-1.237-.772-.927 2.626-1.7 2.318-.154-.309-2.009-2.318-2.009-2.935-1.7.618-3.09-2.009-.309-.463-1.546 2.472-3.245-3.554-1.081-1.081-2.164 5.098-3.554.309-1.391 7.725 1.391 7.725 1.082 4.635-1.855 1.545-2.009 2.936-1.081 4.017-.309 4.326.309 3.553-1.7 2.472-.309 3.708.773.155-2.936 2.008-1.391 3.708.154 2.163 5.1 2.936 3.399ZM688.649 248.551l-.927 1.854-4.944 2.318-6.025-1.7-1.854.927-1.854-1.081-.464-2.009 4.326-.618 5.408 1.081 2.317-.927 1.854.773 2.163-.618Zm-5.253-8.19 2.318 2.163-2.318.464-2.472-1.546 2.472-1.081Zm27.965-13.135-4.635-.618-1.391-1.082 3.708-2.627 4.944-2.318 2.627.618.772 1.391-1.699 1.7-4.326 2.936Zm-11.742-17.771-1.7 1.7-.927-2.164 2.627-2.163v2.627Zm-10.97 39.096-4.017-1.236-3.399.772-4.326-1.082-2.626-2.008 1.854-1.082 3.553-.155 6.18 1.082 1.854-1.391-.927-1.545-3.553-3.245 2.472-4.172 2.163-1.546 4.944-5.872 1.39-3.09 1.854-8.499 1.545-3.091 2.163.773 3.09-1.236 5.253-3.091 1.545-2.627 1.545-1.391 6.18-2.472 3.245-.618 13.75-.773 2.781 2.627 4.172.927.154 6.645-1.081 2.627-1.7 5.872-4.789-.155-.927 2.473 1.081 1.545 4.017.464 1.236 1.545-.927 4.018-4.017 2.472-.463 1.391 1.545 1.391-1.082 1.545-6.952 2.009-3.554-1.236-2.781 1.081-1.081 1.7 4.789 6.336v1.854l-2.008 4.327 1.081 1.854-3.399 2.473-.772 1.236 2.935 1.854-.927 3.709-1.854-.155-3.708-.463-1.081-1.7 1.699-2.009 1.545-4.481-4.017-1.7-2.626-2.009-2.936.618-4.017-2.163-.772-2.473-3.863 1.237-1.699-2.009-2.318 1.545-2.317-1.236-2.163 1.082.309 1.39-3.245-.463Zm27.965-24.107 1.39-1.39-.772-2.936-3.245-.464-.772-1.236.618-3.863-4.326-.619-.618-3.863-2.318.464-3.553 2.318.927 2.009 2.472 2.472v1.391l-3.245 1.081.155 4.018-.309 2.473 8.343 2.163 5.253-4.018ZM639.519 545.553l-.618 1.546-3.09-.619v-2.317l1.854-2.473 4.171-1.082 1.236 2.009-3.553 2.936Zm33.526-21.016 1.854.773 2.009-.773 2.163.619.309 1.545-3.399 5.408-.927 2.164-3.245 2.009-6.18-2.627-.463-2.473-2.163-1.081-2.627 2.008-2.163-1.545-.463-1.854 8.188-5.718 2.318-1.391 4.944-1.39.772 1.854-.927 2.472Zm22.712-1.236-.464.309-6.025-2.936-2.472-.618.154-2.163 4.017-.309 3.245 1.081 1.854 2.782-.309 1.854Zm-119.583-85.763.772 2.009 6.644 2.009-.464 4.945 2.781-.618 6.798 2.627 3.399.309 3.399 3.245 5.562-.618 4.944 3.245 4.79-.618 1.081.618h7.262l1.236-3.709 6.18 1.7 3.862 1.545 2.627.464 1.699 2.318v3.245l1.082.618 4.326-1.7 4.326 1.854 2.008 1.855 3.245-1.7 7.261 1.854 1.854-1.236 5.871-1.7 4.79.927 1.854 3.4-2.781.773-.309 2.163 1.854 2.009.154 3.245-4.635 4.327-13.441 7.263-4.481 4.172-10.197 2.318-6.952 2.318-3.399.772-6.335 5.872 1.7.464 1.854 1.854-.618.928-3.863 1.699h-1.39l-4.481 7.109-4.017 5.099-2.317 2.318-2.318 3.245-4.944 8.654-.154 2.472 2.472 8.499 3.399 4.172 3.708 1.7.927 1.546-1.236 1.545-3.708 2.627-6.644 3.554-2.781 2.936-.463 2.782-2.009 1.236-.772 3.863-2.781 6.799 2.008 1.854-2.008 1.237-10.043.463-6.334 4.327-3.09 3.709-2.936 6.953-3.399 4.018-1.545.773-2.317-1.854-2.936-.155-2.935.464-1.545 1.545-2.318.773-2.317-.773-7.107-.309-3.554 1.236-2.935-.773-4.944-.463-10.815.927-6.18 5.254h-5.253l-4.79 1.854-3.244 4.636-.773 2.473-1.545-.464-.463 1.854-3.245 1.237-3.708-1.546-3.09-2.318-1.545-.154-2.472-3.4-1.854-4.79v-1.7l-2.317-.927-.464-2.164.309-2.472-1.854-3.09-7.725-5.718-5.716-.464-4.635.773-1.7-9.89 1.236-3.399 5.408-6.645 3.244-.927 1.082-3.709-2.627.309-4.635-6.645 1.391-6.181 4.944-4.636.927-3.708-.773-1.236-2.626-.619-2.472-4.945-.464-2.936-2.163-1.854-1.699-2.936 1.699-.464h6.644l1.545-.772 2.626-5.409v-2.936l-2.163-2.009.309-1.545 4.172-3.245-.618-1.7.618-5.872-.618-5.408-1.236-3.091 3.09-2.472 1.699-2.473 2.472-2.163 3.245-1.7 3.862-3.863-.463-1.7-2.936-1.391-2.935-.309-.155-4.79-1.081-1.7-8.034-.154-2.318-.773-1.236 2.163-3.862 1.391h-2.163l-3.399-1.236-4.481.154-4.635 1.7-1.39-2.009 2.008-2.936-1.545-2.781-6.334 1.545-2.936 1.391-1.854 1.7-2.008-.155v-3.863l4.017-4.018-2.472-.309 1.854-2.936-1.545-1.545.154-4.018-3.553 1.391-.773-1.855 2.163-3.399-2.163-.309-3.553-3.863 1.236-4.791 3.09-1.545 2.935-2.318 4.017.464 2.627-.464 5.562-2.473-.618-2.317.618-1.082 4.944-2.627 3.09-.309 2.935-1.391 2.009.773 1.699-.155 2.009.927 2.626 2.473 3.863.927 3.09-.773 5.562-.154 2.626.309 4.944-.464 2.781.155 4.481-1.236 3.553 1.545 6.798.618 4.017 1.236 11.124 2.164h4.172l5.716-1.237 2.472-.772 2.318.463 3.244-.927 3.554 1.545 7.261 2.009 3.245-2.009 5.253.928 5.098 2.008 2.781.155 4.017-.464 3.863-1.545Z" fill="#5954A9" stroke="#EBEBEB" stroke-width="3" stroke-linecap="round" stroke-linejoin="round"/><path d="m795.255 451.909-.464 3.555 1.545 2.627.927 10.044-2.781 4.945.154 4.636-2.471 6.644-1.236 1.7-5.872-3.09-1.853-1.7 1.545-2.782-3.399-1.39.617-2.627-.308-1.391-2.473-.773 1.545-2.009v-1.236l-2.317-1.545-.463-1.391 2.008-1.7-.927-1.391.154-2.008 1.391-2.936 1.854-1.391 4.326-1.236 1.854-1.7 2.935.927.928-1.854-.309-4.173.463-1.699 2.008.772.619 4.172ZM588.379 377.89l-.618 2.164-2.936-3.709 1.545-.772 2.009 2.317Zm130.398-85.917 3.244 1.854h2.164l3.09-.927 2.008 1.082 2.163.154 5.407 6.645 2.782-1.082 2.163.618.463 1.391 3.244.155 4.635-.928 3.09 2.164 7.416 1.236 2.472.927.155 2.009-5.408 5.872-2.163 8.499-1.544 2.782-.464 2.318.309 3.708-.927 3.091v2.318l1.699 2.009-2.317 1.081-1.236 2.164-4.172.463-1.235-1.236h-1.7l-2.781 2.163 2.008 1.7-.927 1.391-5.87 6.181-3.245 1.391-.773 4.481-4.634 3.4-1.7 4.481 1.236 1.082-.464 2.318-2.317 1.545v1.545l2.163.155 3.554-2.473-.773-2.008 3.553-2.318 2.936-.155 3.399.464 1.236 3.399-.773 2.627 3.554 3.554 1.39 2.164-4.017 2.627.155 2.472 1.39.927 2.627 4.018 2.781 2.473-1.236 3.863-1.854.463-2.627 2.009-2.935-.309-1.236.618 2.318 4.791 4.943 2.163.773 2.627-1.236 1.082-2.163 3.863 1.081 2.009.155 2.163 1.39 1.391 7.88 3.709 5.098-.927.464 3.09-3.245 4.018.309 2.318-.927.463-1.235.464-3.709 1.7-6.025 5.254-2.781 1.545-1.082 2.781-3.09 2.164-3.708.773-3.553 1.545-1.699-.618h-4.327l-2.626-1.855-5.253-1.236-1.699-2.781-3.863-.155-1.236-2.318-2.936.464-2.317 1.081-3.09-.154-9.116-2.782-2.163-2.163-2.626.773-2.472 2.472-10.043 6.336-4.017 6.645-.154 1.854 1.081 6.026 2.472 3.864-4.789-.928-5.871 1.7-1.854 1.236-7.262-1.854-3.244 1.7-2.009-1.854-4.326-1.855v-2.318l-4.017-.927-1.39 1.082-1.7-2.318-2.626-.464-3.863-1.545-6.18-1.7-1.236 3.709h-7.261l-1.082-.618-4.789.618-4.944-3.245-5.562.618-3.399-3.245-3.399-.309-6.798-2.627-2.781.618.463-4.945-6.643-2.009-.773-2.009 3.09-.772 2.936-2.936 2.626-10.972 2.009-12.826 1.545-2.472 1.854-.618-1.545-1.855-1.7 2.318 1.082-11.744.772-4.327 1.391-4.635 4.789 3.708 1.236 1.545 1.391 5.254.927.155-1.7-7.108-2.781-3.554-5.562-3.555-.772-2.008 2.781-.928-.773-2.781-.772-9.117-4.635-.927-7.416-4.018-2.627-4.018-2.472-2.936-.618-2.627 1.391-2.781-1.236-1.7-2.163-1.236 1.699-2.473-4.635-.309-2.781-.773-.463-1.699 2.008-2.164-2.472-1.236-4.017.309-.309-2.627-3.399.464-1.854-.464-1.699-1.7-2.009.309-3.399-.618-1.236-1.082-7.416-2.008-3.09-.155-2.935.927-1.7-.463-2.008-3.4-4.79-1.7.927-1.081 4.79-.928.927-1.081-3.399-1.391-.309-1.854 2.472.463.154-1.854-6.18.154-.618-2.009.773-2.163 3.553-1.854 8.961-2.164 3.863.309 2.626-.309 4.635-2.472 4.481-.618 4.171 1.236 3.863 4.327 1.854 1.545 4.789-2.627 6.798.155 1.391 1.39 1.854-2.627 1.545 1.546 7.261-.309-2.317-3.864-.309-9.271-2.009-2.627-3.244-6.645.309-2.163 4.944.463 4.171-.927 2.009.618.463 4.327 1.7 2.472h3.399l3.553.773 4.635.155 6.644 1.236 2.781-.773 5.407-3.09-2.781-1.082-.309-1.082 1.391-3.399 8.034-3.864 5.716-1.081 5.871-2.009 3.09-2.164 1.854-2.781.773-2.009.463-10.508 1.545-3.399 4.481-2.473 9.888-1.7 1.39-.772 1.391 3.399v1.855l4.48 3.708 4.944-1.545 2.472 2.781.773 3.091 6.489 1.7.927 3.09 1.39-.463 5.562.618 2.472 1.7-.618 2.472 1.082 1.082-1.082 2.163.773.927 3.553.464 3.399-.464 2.009-.927.772-2.163 2.936-.927-1.236 4.172.927.927.618 3.091 2.627.154 5.098 2.318 4.326 4.018 5.253-.618ZM462.77 587.585l-1.854.309-6.952 3.863h-2.009l-3.862-1.699-6.953-.619-2.317-.463-2.781 1.082h-2.318l-1.699 1.545-1.236-.464 1.545-3.245 2.472-6.336v-4.017l.618-3.4-.464-3.245-1.081-2.163 1.699-5.409v-2.781l-1.39-3.555 4.326.464-2.627-2.163h-2.317l-3.554 1.39-2.317.155.154-2.163-.772-2.782 3.09-.927 2.472-2.627-.464-2.472-1.854 1.699-.927 2.164-4.326 1.081-2.317-.772v-2.936l.927-2.627.618-3.554 1.236-3.4-.309-2.163 2.472-2.009 2.163-2.936 6.643-13.753-.927-1.546 2.627-10.198 1.854-3.555.927-6.644-.309-3.091-1.082-3.09-1.081-6.645v-2.164l-1.391-2.781.155-1.545 2.163-2.627 1.854-1.7 2.935-1.391 6.335-1.545 1.545 2.781-2.009 2.936 1.391 2.009 4.635-1.7 4.48-.154 3.399 1.236h2.163l3.863-1.391 1.236-2.163 2.317.773 8.034.154 1.082 1.7.154 4.79 2.936.309 2.935 1.391.464 1.7-3.863 3.863-3.244 1.7-2.472 2.163-1.7 2.473-3.09 2.472 1.236 3.091.618 5.408-.618 5.872.618 1.7-4.171 3.245-.309 1.545 2.163 2.009v2.936l-2.627 5.409-1.545.773h-6.643l-1.7.463 1.7 2.936 2.163 1.855.463 2.936 2.472 4.944 2.627.619.772 1.236-.927 3.709-4.944 4.635-1.39 6.181 4.635 6.645 2.626-.309-1.081 3.709-3.245.927-5.407 6.645-1.236 3.399 1.699 9.89Z" fill="#5954A9" stroke="#EBEBEB" stroke-width="3" stroke-linecap="round" stroke-linejoin="round"/><circle cx="564" cy="315" r="10" fill="#FF6565"/><circle cx="722" cy="437" r="10" fill="#FF6565"/><circle cx="686" cy="379" r="10" fill="#FF6565"/><circle cx="860" cy="465" r="10" fill="#FF6565"/><circle cx="629" cy="429" r="10" fill="#FF6565"/><circle cx="603" cy="530" r="10" fill="#FF6565"/><circle cx="780" cy="520" r="10" fill="#FF6565"/></g><defs><clipPath id="a"><path fill="#fff" d="M0 0h1520v699H0z"/></clipPath></defs></svg>