<svg width="1520" height="699" viewBox="0 0 1520 699" fill="none" xmlns="http://www.w3.org/2000/svg">
<g clip-path="url(#clip0_232_1359)">
<path d="M644.153 459.173L639.827 460.873L638.745 460.255V457.009L640.136 455.928L644.153 456.855V459.173Z" fill="#5954A9" stroke="#EBEBEB" stroke-width="3" stroke-linecap="round" stroke-linejoin="round"/>
<path d="M929.051 314.071L927.661 317.779L927.815 319.016L930.287 323.497L933.841 327.978L932.914 329.06L931.987 331.996L933.068 335.087L927.043 335.55L923.18 334.159L921.172 336.323L925.189 337.405L925.961 339.104L925.189 341.268L921.79 343.122L922.408 345.44L921.635 346.522L923.335 348.994L922.871 351.776L919.009 352.548L916.228 355.175L914.219 356.566L914.065 359.502L910.357 358.729L907.885 359.038L904.331 360.738L900.005 360.429L895.988 360.738L893.053 361.82L891.508 363.829L886.873 365.683L879.148 364.601L871.423 363.211L867.406 362.438L861.226 361.974L847.939 359.657L846.239 358.884L841.45 353.475V349.921L834.188 352.239L829.399 351.93L824.146 352.394L821.983 353.321L820.129 356.721L818.429 357.339L815.185 356.721L813.794 355.484L809.159 355.021L808.387 352.703L807.151 352.239L804.061 355.175L800.507 354.557L798.19 353.321L797.572 351.776L792.473 350.539L792.937 349.303L791.237 345.44L792.782 340.804L791.392 339.722L794.018 338.95L795.1 338.177L800.507 340.65L801.898 342.813L803.752 343.277L803.597 345.285L806.069 344.513L807.614 342.04L807.923 339.104L812.249 338.95L816.421 339.568L818.584 342.504L824.455 341.731L826.154 340.341L832.18 338.023L840.986 337.25L841.141 335.087L844.231 335.55L846.548 336.786L850.411 336.014L852.11 336.786L852.419 338.486L854.273 339.877L856.9 340.495L857.363 338.177L856.9 335.241L854.273 334.778L855.2 332.769L855.046 330.76L851.183 326.433L852.11 324.424L856.9 321.643L861.38 320.406L862.925 318.861L864.007 314.38L867.56 315.771L869.569 314.38L869.878 310.053L873.277 311.907L874.513 313.916L880.538 314.534L882.701 313.453L886.564 314.071L886.718 312.371L888.727 309.899H890.581L891.044 304.954L892.898 304.645L895.37 305.881L897.533 305.263L904.949 307.89L907.267 307.735L911.902 310.362L917.773 310.671L919.627 309.28L927.506 311.598L929.051 314.071Z" fill="#5954A9" stroke="#EBEBEB" stroke-width="3" stroke-linecap="round" stroke-linejoin="round"/>
<path d="M716.15 262.921L718.622 262.149L719.858 263.385L721.712 263.54L726.347 267.094L725.729 269.412L728.356 270.493L728.974 273.584L725.42 275.593L724.493 278.22L721.867 277.138L719.858 279.147L717.695 283.01L717.386 285.637L720.476 289.346L718.777 291.973L713.524 292.591L709.198 288.573L704.099 286.255L701.473 286.101L700.855 283.01L699.928 282.083L701.164 277.911L698.228 278.838L697.456 281.001L695.447 281.928L692.048 282.392L688.495 281.928L687.722 281.001L688.804 278.838L687.722 277.756L688.34 275.284L685.868 273.584L680.306 272.966L678.916 273.429L677.989 270.339L671.5 268.639L670.727 265.548L668.255 262.767L663.311 264.312L658.831 260.604V258.749L657.44 255.35L665.32 251.486L672.581 248.859L673.045 250.868L674.899 251.95L676.753 251.023L682.778 252.723L687.722 250.405L688.649 248.55L691.894 249.014L691.585 247.623L693.748 246.541L696.065 247.778L698.383 246.232L700.082 248.241L703.945 247.005L704.717 249.478L708.734 251.641L711.67 251.023L714.296 253.032L718.313 254.731L716.768 259.213L715.069 261.222L716.15 262.921Z" fill="#5954A9" stroke="#EBEBEB" stroke-width="3" stroke-linecap="round" stroke-linejoin="round"/>
<path d="M976.019 402.615L980.345 401.533L982.663 402.77L981.89 406.633L979.418 410.805L979.264 414.823L980.036 416.059L983.744 417.913L988.843 422.395L988.379 423.631L983.59 423.476L982.817 424.713L987.761 430.43L987.452 433.83L983.59 433.366L982.508 434.603L977.564 435.375L979.727 438.775L976.174 439.084L973.084 441.711L972.311 444.338L972.466 446.656L969.839 446.965L969.067 448.046L969.994 452.682L971.693 455.155L971.539 456.391L969.839 457.936L967.213 456.855L957.634 450.982L956.707 449.592L954.235 449.746L952.535 448.819L952.999 446.347L948.364 442.483L946.046 440.011L945.428 436.611L941.72 434.912L933.995 428.576L931.369 425.485L927.043 421.931L923.489 418.222L921.481 412.041L916.228 407.096L913.292 405.088L913.138 402.924L913.601 395.198L915.455 394.271L918.236 394.889L920.863 397.67L923.644 399.216L927.815 394.271L932.759 394.734L935.077 392.88L939.248 395.352L943.111 395.507L947.437 396.589L950.063 395.661L952.535 397.67L955.934 396.125L958.715 396.589L961.496 396.28L965.513 397.361L968.912 397.67L970.612 398.906L972.62 402.306L976.019 402.615Z" fill="#5954A9" stroke="#EBEBEB" stroke-width="3" stroke-linecap="round" stroke-linejoin="round"/>
<path d="M784.284 336.013L785.521 337.713L789.537 339.722H791.391L792.782 340.804L791.237 345.439L790.464 347.757L790.619 350.384L792.473 350.539L797.571 351.775L798.189 353.32L800.507 354.557L804.061 355.175L807.151 352.239L808.386 352.702L809.159 355.02L808.386 359.811L809.159 362.592L806.223 362.283L804.678 360.892L802.67 361.356L801.743 364.137L804.061 369.546L802.206 370.009L800.043 367.073L798.962 366.919L794.481 368.619L791.391 367.382L790.156 364.137L787.066 364.292V368.773L786.293 370.473L782.894 374.491L782.585 376.036L783.666 378.663L781.812 379.745L780.422 377.581L778.413 375.727L779.031 373.873L775.632 372.945L771.924 369.855L771.615 365.992L770.07 365.065L764.817 369.546L765.744 371.864L763.272 375.263L759.564 377.427L754.775 376.191L750.758 377.736L747.05 378.508L744.887 377.427L743.496 375.263L739.943 371.709L740.715 369.082L739.479 365.683L736.08 365.219L733.145 365.374L729.591 367.692L730.364 369.7L726.81 372.173L724.647 372.018V370.473L726.965 368.928L727.428 366.61L726.192 365.528L727.892 361.047L732.527 357.647L733.299 353.166L736.544 351.775L742.415 345.594L743.342 344.203L741.333 342.503L744.114 340.34H745.814L747.05 341.576L751.221 341.113L752.457 338.949L754.775 337.868L756.32 338.331L760.646 338.486L765.744 337.559L769.761 337.868L769.452 335.55L771.461 333.695H773.469L775.632 335.241L776.868 334.932L778.568 336.322L784.284 336.013Z" fill="#5954A9" stroke="#EBEBEB" stroke-width="3" stroke-linecap="round" stroke-linejoin="round"/>
<path d="M884.401 260.913L887.645 260.294L887.491 257.358L892.589 258.595L893.053 260.294L894.598 261.994L901.705 263.694L905.876 265.394L907.112 266.785L912.056 265.703L914.837 267.557L913.756 269.257L911.284 271.111L913.756 272.502L916.846 275.284L919.163 278.22L920.708 278.838L926.116 274.975L923.489 271.266H925.498L928.897 272.193L933.995 275.129L939.557 274.047V276.52L937.394 277.293L941.566 280.847L943.111 281.774L945.892 280.229L951.299 283.01L952.072 282.701L956.243 283.937L957.016 286.719L961.342 290.118L962.114 292.591L957.788 293.054L954.698 295.372L953.771 296.609L950.218 298.463L949.136 303.099L946.664 304.335L943.42 307.271L941.102 308.353L938.476 308.662L932.914 307.889L930.751 309.743L929.051 314.07L927.506 311.598L919.627 309.28L917.773 310.671L911.902 310.362L907.267 307.735L904.949 307.889L897.533 305.262L895.37 305.88L892.898 304.644L891.044 304.953L890.581 309.898H888.727L886.718 312.37L886.564 314.07L882.701 313.452L880.538 314.534L874.513 313.916L873.277 311.907L869.878 310.052L868.951 308.971L864.47 305.571H862.462L860.453 303.099L856.591 300.781L852.11 296.763H850.102L846.548 293.673L843.767 289.5L841.604 287.182L843.458 284.555L842.531 282.083L838.978 280.074L835.115 274.82L835.888 273.738L838.823 276.829L841.759 272.811L843.458 271.884L847.475 270.957L850.72 271.575L851.956 269.566L855.046 269.102L855.973 267.557L858.445 266.476L860.144 266.63L861.071 264.776L867.869 263.23L873.277 260.913L876.212 259.985L873.895 257.667L875.131 256.74L878.53 257.358L880.847 259.676V261.067L883.01 261.994L884.401 260.913Z" fill="#5954A9" stroke="#EBEBEB" stroke-width="3" stroke-linecap="round" stroke-linejoin="round"/>
<path d="M867.406 190.911L862.153 190.757L861.844 188.13L860.145 186.585L859.99 185.039L867.252 189.057L867.406 190.911ZM813.64 178.395H810.859L808.696 177.313L809.932 175.768L812.559 176.386L813.64 178.395ZM857.364 179.167L855.355 180.249H853.347L851.338 182.258L848.094 180.558L847.321 178.858L847.476 175.459L848.403 173.295L851.493 171.904L852.883 173.759L855.51 174.686L854.737 177.313L857.364 179.167ZM785.367 168.968L788.148 170.05L790.62 172.523L790.774 174.686L788.148 177.158L793.092 176.695L794.328 178.549L796.954 177.931L803.907 180.713L808.851 179.322L809.932 181.485L809.005 183.803L805.606 186.276L807.769 188.13L811.014 187.821L816.576 189.212L821.674 185.348L823.374 184.576L828.936 184.112L836.815 177.158L845.004 178.549L847.321 181.485L853.038 184.73L857.982 184.421L859.99 187.512L861.226 191.375L864.162 193.384L868.488 194.156L869.569 198.174L872.35 204.51L871.887 208.682L868.951 211.464L867.87 213.936L870.342 216.099L875.44 219.345L877.603 221.972L876.676 225.989L879.766 229.543L881.002 232.479L879.921 236.497L878.685 238.197L881.62 242.987V245.46L885.019 246.851L887.491 251.795L886.873 255.35L884.401 260.913L883.011 261.994L880.848 261.067V259.676L878.53 257.359L875.131 256.74L873.895 257.668L876.213 259.985L873.277 260.913L867.87 263.231L861.072 264.776L860.145 266.63L858.445 266.476L855.973 267.557L855.046 269.103L851.956 269.566L850.72 271.575L847.476 270.957L843.459 271.884L841.759 272.811L838.824 276.829L835.888 273.738L835.116 274.82L838.978 280.074L842.532 282.083L843.459 284.555L841.605 287.182L843.768 289.5L846.549 293.673L850.102 296.763H852.111L856.591 300.781L860.454 303.099L862.462 305.571H864.471L868.951 308.971L869.878 310.053L869.569 314.379L867.561 315.77L864.007 314.379L862.926 318.861L861.381 320.406L856.9 321.642L852.111 324.424L851.184 326.433L855.046 330.759L855.201 332.768L854.274 334.777L856.9 335.241L857.364 338.177L856.9 340.495L854.274 339.877L852.42 338.486L852.111 336.786L850.411 336.013L846.549 336.786L844.231 335.55L841.141 335.086L840.987 337.25L832.18 338.022L826.155 340.34L824.455 341.731L818.584 342.503L816.421 339.567L812.25 338.949L807.924 339.104L807.615 342.04L806.07 344.512L803.598 345.285L803.752 343.276L801.898 342.813L800.508 340.649L795.1 338.177L794.019 338.949L790.62 337.095L782.74 333.541L784.285 336.013L778.569 336.322L776.869 334.932L775.633 335.241L773.47 333.695H771.462L769.453 335.55L769.762 337.868L765.745 337.559L760.647 338.486L756.321 338.331L754.776 337.868L753.076 335.859V333.541L754.003 330.45L753.694 326.742L754.158 324.424L755.703 321.642L757.866 313.143L763.273 307.271L763.119 305.262L760.647 304.335L753.231 303.099L750.141 300.935L745.506 301.863L742.261 301.708L741.798 300.317L739.635 299.699L736.854 300.781L731.446 294.136L729.283 293.982L730.21 289.346L731.601 287.955V285.792L727.275 284.092L724.957 281.619L724.494 278.22L725.421 275.593L728.974 273.584L728.356 270.493L725.73 269.412L726.348 267.094L721.713 263.54L722.64 259.831L719.704 257.977L720.477 256.74L723.876 254.268L722.794 252.414L724.803 248.087V246.232L720.013 239.897L721.095 238.197L723.876 237.115L727.429 238.352L734.382 236.343L735.463 234.797L733.918 233.407L734.382 232.016L738.399 229.543L739.326 225.526L738.09 223.98L734.073 223.517L732.991 221.972L733.918 219.499L738.708 219.654L740.407 213.782L741.489 211.155L741.334 204.51L738.708 202.346L739.48 198.174L741.18 196.011L742.57 195.393L748.75 194.929L755.703 195.084L758.638 198.483L757.711 200.338L760.183 200.801L761.574 197.093L763.737 198.329L765.436 198.174L764.664 195.547L764.973 193.075L766.363 190.911L771.462 191.839L777.024 191.375L777.178 190.448L772.852 189.675L771.462 187.975L771.153 181.949L768.835 180.713L766.363 181.176V178.858L771.616 177.158V175.613L766.363 169.741L766.054 167.269L770.226 167.423L778.26 169.432L783.049 168.35L785.367 168.968Z" fill="#5954A9" stroke="#EBEBEB" stroke-width="3" stroke-linecap="round" stroke-linejoin="round"/>
<path d="M814.258 167.423L817.502 168.968L821.21 169.432L821.828 172.368L816.421 173.449L808.541 170.204L808.696 166.341L812.249 166.032L814.258 167.423ZM835.424 165.723L831.871 165.878L828.935 167.423L828.472 165.568L830.944 164.023L832.798 164.332L835.424 165.723ZM790.928 167.577L789.074 167.886L786.448 167.114L785.521 163.56L789.692 165.259L790.928 167.577ZM803.288 170.668L801.125 168.35L804.988 163.869L806.069 163.56L803.288 170.668ZM880.693 164.487L876.985 164.178L873.277 162.632L873.431 159.542L874.204 158.151L881.156 161.705L880.693 164.487ZM800.198 151.043L803.752 157.688L803.597 162.014L800.816 163.869H797.572L789.229 161.242L786.602 156.76L786.448 153.206L793.864 151.043L797.881 152.279L800.198 151.043ZM836.197 151.352L834.652 152.279L833.57 150.888L834.961 149.498L836.197 151.352ZM799.271 147.025H797.881V142.389L800.198 144.862L799.271 147.025ZM834.188 147.025L834.343 149.343L833.261 150.425L830.171 151.506L828.472 154.288L831.562 156.142L832.334 158.46L830.789 159.542L826.772 160.624V169.277L823.373 170.204L821.056 166.959L820.901 165.568L818.893 160.778L815.803 160.16L812.404 160.315L810.086 157.533L810.241 154.288L808.696 151.197L806.687 150.27L807.305 148.107L812.095 147.798L814.412 144.862V143.471L817.193 143.162L818.429 144.244L818.584 148.261L821.056 149.034L822.755 144.553L821.365 142.853L827.39 139.453L829.09 139.299L833.725 140.689L833.107 143.935L834.188 147.025ZM785.366 168.968L783.049 168.35L778.259 169.432L770.225 167.423L766.054 167.268L765.281 164.023L764.045 161.86L765.745 161.396L764.354 155.37L759.41 153.361L755.548 151.197L756.32 142.544L754.775 138.99L754.93 128.327L756.938 128.173L761.728 129.409L764.045 130.8L764.972 127.864L767.444 125.391L770.534 124.155L773.006 126.164L773.47 119.21L770.998 118.437L768.989 119.056L766.981 121.992L765.436 125.7L762.5 126.009L760.183 127.091L756.475 124.928L756.629 122.764L759.101 119.828L762.191 116.892H765.59L768.062 115.965L774.088 116.119L778.414 114.111L782.74 108.548L785.057 106.23L790.156 105.457L794.791 102.83L793.555 106.693L795.409 109.32V113.956L794.018 115.501L791.855 119.365L792.164 128.018L796.027 130.336H802.361L803.906 132.036L802.825 135.435L798.808 137.599H797.417L795.254 135.899L793.555 137.29L791.701 145.171L788.611 145.016L786.757 145.789L788.92 147.643L786.911 148.879L781.658 153.67L783.358 158.924L783.049 160.315L780.731 162.323L779.804 164.023L783.358 164.487L785.366 168.968Z" fill="#5954A9" stroke="#EBEBEB" stroke-width="3" stroke-linecap="round" stroke-linejoin="round"/>
<path d="M591.159 264.931L588.687 266.94L586.679 267.249L582.816 265.394V264.622L586.679 262.922L589.769 263.849L591.159 264.931ZM534.767 203.583L536.775 204.974L531.522 207.91L529.668 206.983L528.278 205.128L528.123 202.192L529.977 201.42H532.758L534.767 203.583ZM498.768 185.967L495.524 186.585H491.043L491.198 184.267L489.035 183.494L486.254 179.322L484.245 178.55L481.31 181.022L482.082 182.413L478.374 185.194L473.894 184.731L472.658 183.649L469.413 183.031L469.104 181.486L464.933 178.395L466.478 176.232L470.958 174.841L469.413 172.677L469.722 171.441L472.194 171.596L475.593 170.36L477.447 167.887L478.992 164.333L481.928 162.942L483.936 163.869L486.872 160.779L491.198 160.624L495.369 159.543L501.395 160.006L503.094 161.706L503.867 164.333L505.875 166.96L508.502 169.123V170.514L505.412 172.214L510.819 172.677L512.673 176.541L509.429 177.004L509.274 179.168L510.974 179.477L510.047 181.64L506.03 182.567L503.867 185.967L502.322 186.74L498.768 185.967ZM519.935 154.752L515.918 153.98L514.991 150.889L516.381 148.726L519.162 149.807L520.089 151.816L519.935 154.752ZM502.167 143.781L503.249 149.035L499.541 151.044L498.305 147.335L496.142 148.88L496.451 145.944L498.768 145.481L502.167 143.781ZM504.794 146.408L503.094 144.553L505.566 141.154L508.193 139.608L508.038 142.081L504.794 146.408ZM508.656 134.355L501.549 135.591L502.476 130.955L499.541 129.564L500.004 128.173L503.249 127.401L505.875 130.028L509.12 130.955L508.656 134.355ZM483.627 116.738L481.31 116.429L480.692 114.266L481.001 110.712L483.473 111.021L483.627 116.738ZM503.403 107.93L503.249 112.257L507.729 113.493L510.819 113.339L511.437 114.266L506.339 118.438L505.257 118.284L504.948 114.884L502.785 115.348L499.85 114.884L497.996 111.948L493.824 111.175L492.434 109.475L494.597 108.548L495.06 106.694L499.386 105.767L501.704 104.685L503.094 106.23L503.403 107.93ZM485.018 103.912L486.872 105.303L485.172 107.312H482.855L479.456 105.767L479.765 104.994L485.018 103.912ZM503.249 88.6142L500.777 92.6319L499.232 93.7136L498.923 96.3406L494.288 98.813L489.344 102.522L487.181 100.976L491.198 98.3494L487.953 96.8041L487.644 92.7865L488.88 91.7047L491.043 92.7865L493.979 92.3228L492.897 90.4685L502.631 85.5236L503.249 88.6142ZM557.015 85.2145V87.0689L555.006 89.5414L551.607 91.3957L545.118 95.7225L541.256 97.7313L540.483 100.204L542.646 100.358L542.955 101.595L539.556 104.067L538.629 106.385L543.264 105.767L551.453 103.449L557.015 104.222L561.032 103.758L571.692 104.067L574.628 103.603L578.181 105.612L579.726 108.239L575.4 113.493L574.164 117.047L571.074 122.456L568.139 125.546L565.049 129.41L561.804 131.109L557.015 131.882L563.967 134.818L561.804 137.6L558.096 137.754L554.543 140.381L551.298 141.463L556.86 143.163L560.568 141.617L564.74 141.463L572.774 144.399L578.336 149.653L581.426 151.971L582.198 153.671L585.443 164.333L587.76 170.205L590.232 172.987L597.185 175.459L598.884 176.386L604.137 181.486L609.39 185.194L607.227 187.512L607.845 189.367L611.09 193.848L611.553 196.32L609.545 196.166L605.991 194.002L605.528 195.084L613.253 200.184L615.725 203.274L617.27 207.446L616.343 209.146L611.708 213.318L616.034 215.482L617.888 215.173L620.978 211.928L623.604 211.619L630.093 212.082L635.964 213.627L641.063 216.873L642.144 218.572L642.762 223.363L639.363 232.325L635.037 235.261L634.265 237.888L631.02 239.279L628.394 238.816L624.686 240.67L627.312 241.597V244.224L625.613 245.151L621.75 245.46L623.45 248.551L627.312 249.169L633.956 248.86L636.891 249.169L636.582 253.341L635.964 253.959L630.093 256.586L628.548 259.368L625.149 259.213L623.45 260.295L614.643 263.231L607.073 261.995L602.592 262.149L596.412 263.076L589.923 261.222L587.142 260.913L582.816 263.54L576.327 264.313L573.237 264.004L574.628 266.322L573.237 266.94L567.366 266.167L565.821 266.94L563.658 266.631L559.487 264.467L555.47 264.313L547.899 266.167L546.354 268.176L544.346 273.584L542.646 275.439L540.483 275.748L533.531 271.885L531.213 272.657L527.351 273.121L523.179 274.203L517.154 277.911L515.763 280.229L513.755 280.538L512.055 279.147L509.892 278.684L506.339 279.92L505.875 277.911L507.42 276.366L511.746 275.284L515.609 272.348L519.008 268.794L526.115 262.922L527.351 258.132L531.522 257.05L533.685 253.187L540.02 252.26H544.346L548.672 253.032L553.152 252.878L554.852 251.796L557.787 248.087L563.349 243.451L556.088 244.997L550.217 248.551L545.273 247.933L541.719 244.997L538.475 243.76L535.23 244.379L534.149 242.988L530.441 240.361H526.424L520.862 242.988L516.845 241.133L515.454 237.579L515.918 235.416L517.617 234.334L521.48 233.407L527.351 230.78L530.75 229.698L535.076 226.762L536.93 223.208L536.466 220.118L537.239 217.954L535.848 215.327L536.312 213.009L531.677 213.473L527.505 215.327L526.424 213.627L530.75 210.846L532.295 208.683L536.312 206.056L541.874 204.047L544.809 204.201L550.526 203.12L554.697 205.128L553.461 201.883L555.315 201.265L555.47 197.557L557.942 194.157L556.088 193.23L556.242 190.139L558.56 188.903L559.641 184.885L557.015 184.113L553.77 185.04L551.144 182.722L546.818 177.159L546.354 174.995L548.826 170.205L552.38 167.114L549.444 165.878L547.281 166.187L543.11 168.042L540.02 170.051H536.775L535.539 168.66L533.84 168.814L529.977 170.514L524.57 168.505L522.87 172.059L518.853 168.196L518.39 165.26H520.398L522.252 161.551L526.733 155.37L527.66 153.516L526.887 151.353L523.952 149.035L524.415 145.017L525.651 143.472L527.969 142.854L525.033 140.999L520.553 142.39L517.772 143.781L518.235 140.69L517.308 140.072L514.991 142.235L515.145 147.335L511.901 156.143L510.201 157.534L508.038 156.761L509.738 150.735L511.901 146.871L510.974 146.408L511.437 140.845L512.982 136.363L515.609 130.491L519.008 125.083L512.673 129.255L511.128 130.028L507.42 129.41L506.184 128.328L504.639 124.774L507.42 124.465L510.047 122.765L507.729 121.683L510.047 120.292L512.673 117.047L513.291 114.111L511.746 111.793L509.274 110.866L508.965 109.475L511.592 106.539L510.51 104.222L512.982 99.4311L517.617 99.5857L520.553 98.9676L516.999 95.877L518.081 91.3957L523.797 90.9321L522.561 88.1506L523.025 85.06L525.497 83.6693L527.505 83.9783L529.05 85.3691L533.067 83.9783L533.994 85.2145L538.32 84.2874L544.037 83.8238L550.989 82.8966L554.388 82.2785L557.942 82.5876L557.015 85.2145ZM556.088 79.0334L554.079 79.1879L552.071 77.0246L554.388 76.561L556.088 79.0334ZM558.096 73.7795L562.268 74.7066L561.341 76.87L559.178 75.7884L556.088 76.2519L553.152 74.7066L553.77 71.4615L556.397 71.307L558.251 72.0796L558.096 73.7795ZM563.813 70.2253L562.268 70.6889L561.65 68.8346L559.023 67.9074L559.641 66.6712L563.813 70.2253ZM588.687 40.0923L591.159 42.8738L592.704 43.6465L590.696 49.5186L590.387 51.991L588.842 54.618L587.606 53.9999L588.996 49.5186L588.224 47.8187L585.597 48.2823L584.979 46.8916L587.451 44.7282L586.215 41.6376L584.516 41.3285L586.833 38.8561L588.687 40.0923ZM593.168 40.7104L591.005 38.7016L593.013 37.7744L593.168 40.7104Z" fill="#5954A9" stroke="#EBEBEB" stroke-width="3" stroke-linecap="round" stroke-linejoin="round"/>
<path d="M934.304 447.428L937.857 448.046L936.158 449.437L934.304 447.428ZM954.234 449.746L956.706 449.592L957.633 450.982L967.212 456.854L969.839 457.936L971.693 460.872L964.277 456.082L957.479 452.219L952.689 451.137L946.046 448.046L945.273 446.656L954.234 449.746ZM944.501 444.338L943.265 444.492L934.613 444.338L931.986 443.874L931.214 441.865L933.995 442.174L934.767 443.102L944.501 444.338ZM936.312 440.784L933.222 440.938L929.205 439.702L929.669 438.002L937.085 438.929L936.312 440.784ZM903.558 415.286L903.095 415.905L897.996 411.732L897.533 408.796L901.859 412.968L903.558 415.286ZM895.988 405.242L893.052 404.933L894.288 403.233L895.988 405.242ZM889.499 407.56L888.108 407.405L885.482 400.915L886.1 399.061L884.864 395.97L886.254 395.507L887.027 398.752L888.572 400.143L888.417 402.615L889.499 407.56ZM895.215 399.988L892.898 400.452L891.353 398.906L889.344 398.597L887.799 397.052L889.344 395.97L890.117 394.116L895.215 399.988ZM971.693 377.272L970.611 379.59L973.083 383.763L973.392 386.235L975.401 386.853L974.783 389.944L976.637 391.489L981.272 393.034L982.662 395.352L979.109 395.507L976.482 396.125L977.564 400.143L976.019 402.615L972.62 402.306L970.611 398.906L968.912 397.67L965.513 397.361L961.496 396.279L958.715 396.588L955.934 396.125L952.535 397.67L950.063 395.661L947.436 396.588L943.11 395.507L939.248 395.352L935.076 392.88L932.759 394.734L927.815 394.271L923.643 399.215L920.862 397.67L918.236 394.889L915.455 394.271L913.601 395.198L913.137 402.924L913.292 405.088L916.227 407.096L921.48 412.041L923.489 418.222L927.042 421.931L931.368 425.485L933.995 428.576L941.72 434.911L945.428 436.611L946.046 440.011L948.363 442.483L952.998 446.347L952.535 448.819L947.127 444.492L943.11 442.174L938.321 437.848L932.45 436.148L928.278 434.293L923.18 435.221L920.399 434.911L919.317 431.512L910.356 425.485L903.713 419.304L902.477 417.295L907.266 415.441L905.103 414.205L899.078 408.951L897.224 406.478L897.069 400.143L895.833 397.516L891.353 394.116L889.653 392.416L886.409 391.335L884.246 392.725L883.782 395.661L879.147 403.388H877.139L872.349 396.898L871.577 393.962L869.568 387.935L870.65 387.162L871.422 388.089L876.521 389.326L878.684 387.317L880.383 388.089L885.945 387.935L886.872 387.471L888.726 384.072L892.743 387.317L895.061 388.399L897.069 387.626L900.159 388.708L902.631 389.017L904.485 388.399L903.249 384.844L904.331 383.763L902.786 382.063L906.03 380.518L909.275 379.59L909.893 377.891L909.584 374.491L908.193 373.1L908.811 370.937L915.609 368.31L916.691 366.765H919.781V364.138L921.171 362.901L925.034 363.829L929.514 365.683L932.141 367.537L933.531 369.546L937.703 372.328L941.102 375.727L943.11 376.809L946.973 377.736L948.981 379.745L954.08 381.136L961.65 381.445L965.513 380.054L967.212 377.891L971.693 377.272Z" fill="#5954A9" stroke="#EBEBEB" stroke-width="3" stroke-linecap="round" stroke-linejoin="round"/>
<path d="M1026.7 318.552H1029.01L1031.18 322.106L1034.57 323.342L1035.97 325.042L1039.52 325.66L1040.91 326.742L1041.99 329.369L1038.59 332.923L1031.48 334.623L1028.55 338.332L1026.7 339.877L1026.85 342.504L1024.69 344.667L1023.61 348.53L1021.44 350.848V352.703L1018.97 356.875L1019.28 358.884L1016.03 361.202L1013.72 368.465L1011.71 369.855L1007.69 369.392L1003.83 372.482L1001.67 371.71L996.722 373.1L995.177 372.328L990.851 371.864L989.152 372.173L984.671 371.555L983.126 372.019L980.809 374.491L977.41 376.036L974.938 375.264L971.693 377.273L967.213 377.891L965.513 380.054L961.651 381.445L954.08 381.136L948.982 379.745L946.973 377.736L943.111 376.809L941.102 375.727L937.703 372.328L933.532 369.546L932.141 367.537L929.515 365.683L925.034 363.829L922.099 360.429L919.936 355.33L916.228 355.175L919.009 352.548L922.871 351.775L923.335 348.994L921.635 346.522L922.408 345.44L921.79 343.122L925.189 341.268L925.961 339.104L925.189 337.404L921.172 336.323L923.18 334.159L927.043 335.55L933.068 335.086L931.987 331.996L932.914 329.06L933.841 327.978L937.085 328.442L943.574 332.614L946.046 333.696L953.308 333.85L964.123 333.232L965.049 331.687L964.277 329.678L964.895 328.133L967.058 327.051L973.702 326.433L977.41 325.506L978.954 323.188L980.036 322.879L985.444 325.042L993.169 321.179L995.641 315.77L998.422 315.152L1002.59 315.307L1006.46 316.234L1013.56 315.152L1015.73 316.543L1019.12 319.943L1020.05 320.252L1026.7 318.552Z" fill="#5954A9" stroke="#EBEBEB" stroke-width="3" stroke-linecap="round" stroke-linejoin="round"/>
<path d="M498.768 185.966L499.849 187.666L496.45 188.284L498.768 196.32L499.695 197.71V204.046L501.085 208.991L501.24 212.854L499.231 215.636L497.841 218.881L497.532 221.662L495.06 224.907L492.742 226.298L495.214 228.616L490.888 229.852L486.871 229.389L484.863 230.625L478.837 230.934L473.121 232.016L470.494 234.797L466.632 235.879L465.087 237.424L461.533 238.66L458.907 236.806L457.362 237.115L457.671 240.36L453.19 242.369L450.409 242.833L448.864 243.914L439.903 246.078L436.968 245.305L431.869 246.541L430.015 246.387L432.487 243.605L434.959 241.596L429.088 242.524L426.925 243.296L425.998 242.369L430.942 239.433L425.844 239.588L421.209 238.969L420.591 237.424L425.071 233.87L428.779 232.479L428.625 231.089L420.745 231.243L421.518 229.543L424.144 227.998L426.925 227.843L429.243 228.771L430.942 227.534L430.015 224.907L436.041 221.353L440.676 220.89L445.774 219.808L450.873 218.572L447.165 216.717L443.611 219.499L439.594 219.963L436.659 219.19H433.414L437.586 216.099L440.058 213.472L438.822 212.391L441.912 208.836L447.474 207.291L445.002 205.282L438.976 205.591L436.813 203.583L432.796 203.737L433.414 201.883L428.007 201.574L428.779 200.028L427.852 198.329L432.178 197.401L431.869 194.311L434.805 193.075L437.895 192.457L438.049 190.757L434.959 190.448L431.869 191.066L433.105 187.821L431.869 186.275L431.251 183.648L429.861 182.103L434.187 181.794L436.041 181.021L443.302 181.176L446.238 183.185L448.864 181.33L456.28 182.721L457.207 178.703L463.078 176.386L464.932 173.295L459.216 173.913L453.654 172.368L454.735 171.132L457.98 170.05L460.915 167.577L460.452 165.878L463.078 161.705L467.868 160.469H471.576L474.048 159.078L475.902 162.169L474.357 163.714L475.284 165.105L477.138 163.869L476.365 160.624L477.756 158.615L480.691 158.151L481.618 156.915L486.562 159.542L482.7 161.86L481.927 162.942L478.992 164.332L477.447 167.887L475.593 170.359L472.194 171.595L469.722 171.441L469.413 172.677L470.958 174.84L466.477 176.231L464.932 178.394L469.104 181.485L469.413 183.03L472.657 183.648L473.893 184.73L478.374 185.194L482.082 182.412L481.309 181.021L484.245 178.549L486.253 179.322L489.034 183.494L491.197 184.266L491.043 186.584H495.523L498.768 185.966Z" fill="#5954A9" stroke="#EBEBEB" stroke-width="3" stroke-linecap="round" stroke-linejoin="round"/>
<path d="M921.017 562.397L919.163 566.26L914.837 572.905L912.52 580.786L912.983 583.877L915.455 586.04L914.374 586.813L916.846 589.594L917 591.603L914.219 594.539L913.601 597.166L913.756 599.484L909.275 598.557L907.112 599.02L901.396 596.857L898.46 592.53L893.825 589.44H889.19L887.027 588.667L882.547 585.731L877.912 583.567L873.895 580.322L871.268 579.704L868.951 578.159H864.47L860.917 575.687L858.908 572.132L860.917 566.415L863.08 565.179L864.47 563.324L868.024 566.878L870.805 565.642L872.968 563.17L876.676 563.324L877.448 564.715L879.611 565.179L883.474 567.651L885.637 568.269L890.89 566.724L895.525 567.342L899.851 566.569L902.477 565.642L904.331 564.097L906.494 563.633L911.902 564.097L914.992 562.243L916.228 562.552L919.318 560.697L921.017 562.397ZM800.044 498.268L801.125 499.659L803.906 507.385L802.979 509.858L800.971 512.948L802.207 517.275L801.28 535.046L800.353 539.527L798.962 540.145L794.482 538.291L792.164 538.754L790.31 537.827L789.847 542.463L787.066 545.708L782.431 545.399L781.349 544.472L777.641 538.6L777.023 531.955L777.95 529.946V526.083L779.65 525.928V523.301L776.869 521.447V518.511L777.95 516.348L777.796 512.33L776.56 510.939L775.324 507.385L771.925 503.676L772.079 498.422L777.332 499.35L779.341 498.886L784.13 496.568L787.375 492.705L789.538 491.932L791.855 489.151L792.937 490.541L796.336 491.778L798.19 494.096L799.58 494.868L798.499 497.032L800.044 498.268ZM812.867 450.673L813.331 452.837L809.468 453.609L807.769 451.909L812.249 451.6L812.867 450.673ZM871.423 363.21L871.114 364.601L866.015 368.155L867.097 370.319L870.65 371.4L868.178 374.645L868.642 376.191L870.65 376.5L870.032 379.59L872.968 381.29L875.285 383.299L875.594 385.308L873.277 385.462L874.358 384.535L871.268 381.136L868.178 382.526L863.234 381.136L859.99 384.226L857.672 384.844L855.046 386.544L850.102 388.398L847.321 387.78L845.776 388.862L845.158 393.652L846.394 394.58L848.711 398.597L851.338 400.297L850.256 403.233L848.866 404.315L846.857 403.542L846.394 406.169L847.784 413.123L849.947 418.068L851.801 420.077L855.973 423.476L860.144 425.176L868.024 430.894L872.35 432.593L873.431 433.675L876.212 438.002L878.684 442.947L881.465 450.828L883.474 454.691L887.027 459.172L894.443 465.508L901.087 469.989L907.267 472.925L911.902 473.389L922.717 472.771L926.734 473.852L927.352 475.707L926.734 477.098L922.253 480.343V482.97L924.571 484.824L935.54 489.769L946.664 493.787L950.063 495.95L954.235 499.195L964.123 503.676L965.822 505.84L972.002 510.476L974.783 514.184L975.556 516.966L973.238 523.765L970.766 522.992L967.831 520.984L963.041 512.639L955.316 511.866L950.836 509.858L949.754 507.694L946.201 507.076L944.192 508.467L942.029 511.557L939.712 516.193L937.394 522.838V525.465L939.094 528.092L943.574 529.637L947.282 531.955L949.754 534.428L950.218 540.3L951.608 543.545L950.218 545.554L947.282 545.09L943.42 546.172L940.793 548.335L939.712 550.499L940.484 555.752L940.021 557.916L934.922 561.779L932.45 565.642L930.905 569.196H924.262L922.562 566.878L922.408 563.479L923.335 561.47L925.807 560.388L927.197 556.061L926.425 552.971L928.124 550.499L932.45 549.417V544.935L930.287 542.927L928.124 535.046L924.416 528.401L922.253 522.529L920.554 519.747L918.391 518.202L912.674 517.739L905.567 513.721L905.104 512.021L906.031 510.321L904.331 505.994L901.241 503.367L897.224 504.295L895.37 504.14L895.216 501.822L892.126 499.813L887.954 499.504L886.873 498.422L882.856 492.241L880.229 489.614L876.676 489.769L870.65 488.378L867.56 489.46L862.616 485.442L858.29 484.051L849.484 475.861L846.703 472.771L841.295 469.371L837.742 464.426L834.961 462.572L828.781 460.409L828.317 458.4L823.528 453.609L820.901 452.064L818.893 448.819L815.03 448.046L815.185 443.874L813.331 438.466L810.704 435.066L808.85 426.876L807.614 424.558L804.833 422.858L798.653 421.004L789.847 415.75L788.147 415.595L782.894 413.586L779.65 413.277L775.633 415.132L770.843 420.077L766.981 425.331L765.59 426.258L760.337 428.112L755.702 428.885L755.393 426.567L758.638 422.549L758.174 419.459L753.076 420.386L745.196 416.677L743.806 415.286L743.651 413.123L742.57 411.114L744.733 407.251L745.969 406.169L745.196 403.542L740.252 401.379L737.935 396.588L739.171 395.97L742.106 396.279L744.733 394.27L746.587 393.807L747.823 389.944L745.042 387.471L742.415 383.453L741.025 382.526L740.87 380.054L744.887 377.427L747.05 378.509L750.758 377.736L754.775 376.191L759.565 377.427L763.273 375.264L765.745 371.864L764.818 369.546L770.071 365.065L771.616 365.992L771.925 369.855L775.633 372.946L779.032 373.873L778.414 375.727L780.422 377.581L781.813 379.745L783.667 378.663L782.585 376.036L782.894 374.491L786.293 370.473L787.066 368.773V364.292L790.156 364.137L791.392 367.383L794.482 368.619L798.962 366.919L800.044 367.074L802.207 370.01L804.061 369.546L801.743 364.137L802.67 361.356L804.679 360.892L806.224 362.283L809.159 362.592L808.387 359.811L809.159 355.02L813.794 355.484L815.185 356.72L818.429 357.338L820.129 356.72L821.983 353.32L824.146 352.393L829.399 351.93L834.188 352.239L841.45 349.921V353.475L846.239 358.884L847.939 359.656L861.226 361.974L867.406 362.438L871.423 363.21Z" fill="#5954A9" stroke="#EBEBEB" stroke-width="3" stroke-linecap="round" stroke-linejoin="round"/>
<path d="M792.473 350.539L790.619 350.384L790.465 347.757L791.237 345.439L792.937 349.303L792.473 350.539Z" fill="#5954A9" stroke="#EBEBEB" stroke-width="3" stroke-linecap="round" stroke-linejoin="round"/>
<path d="M724.494 278.219L724.957 281.619L727.275 284.091L731.601 285.791V287.955L730.21 289.345L729.283 293.981L727.275 292.9L724.185 293.827H722.022L718.777 291.972L720.477 289.345L717.387 285.637L717.696 283.01L719.859 279.147L721.867 277.138L724.494 278.219Z" fill="#5954A9" stroke="#EBEBEB" stroke-width="3" stroke-linecap="round" stroke-linejoin="round"/>
<path d="M982.508 434.603L983.126 436.457L987.143 439.084L990.078 442.174L994.713 444.647L997.958 445.42L1006.15 449.901L1006.3 451.446L1003.83 452.064L1003.52 453.146L1000.43 453.764L1001.82 456.082L1001.51 458.091L996.258 459.945L995.022 456.7L993.323 456.236L988.379 464.426L987.143 464.89L983.28 464.581L985.752 467.517L988.379 468.753L988.842 469.68V474.471L985.598 472.616L984.207 469.835L979.418 465.354L974.01 462.263L974.165 460.718L971.693 460.872L969.839 457.936L971.538 456.391L971.693 455.155L969.993 452.682L969.066 448.046L969.839 446.965L972.465 446.656L972.311 444.338L973.083 441.711L976.173 439.084L979.727 438.775L977.564 435.375L982.508 434.603Z" fill="#5954A9" stroke="#EBEBEB" stroke-width="3" stroke-linecap="round" stroke-linejoin="round"/>
<path d="M1020.21 179.785L1021.13 178.858L1024.69 179.94L1031.64 183.339L1033.34 184.73L1034.57 189.366L1037.82 197.247L1042.3 204.819L1044.93 210.382L1046.32 216.408L1045.39 218.881L1039.21 221.508L1037.97 222.28L1034.88 226.453V228.307L1039.98 230.316L1042.76 231.861L1044 233.407L1043.69 237.115L1044.31 238.815L1043.07 241.133L1043.23 243.142L1044.77 245.614L1046.63 248.396V250.405L1050.8 254.731L1053.73 259.058L1055.9 260.603L1054.04 262.612L1056.82 266.63L1056.98 268.639L1055.12 271.42L1050.49 272.193L1043.07 279.301L1039.36 283.474L1034.11 290.273L1033.18 291.818L1035.5 297.69L1035.35 300.472L1038.28 302.635L1037.66 304.026L1032.57 302.944L1031.18 302.635L1022.37 299.699L1021.13 297.536L1019.59 296.454L1014.8 294.909L1009.24 294.445L1004.29 294.754L1002.13 297.072L999.348 296.918L995.641 295.372L991.006 295.527L987.452 297.072L985.752 300.317L983.126 299.39L980.963 300.008L980.036 295.836L977.873 295.218L973.238 290.582L969.839 292.591L968.294 295.218H964.895L964.122 292.9L962.114 292.591L961.342 290.118L957.016 286.719L956.243 283.937L952.072 282.701L951.299 283.01L945.892 280.229L943.111 281.774L941.566 280.847L937.394 277.293L939.557 276.52V274.047L933.995 275.129L928.897 272.193L925.497 271.266H923.489L926.116 274.975L920.708 278.838L919.163 278.22L916.846 275.284L913.756 272.502L911.283 271.111L913.756 269.257L914.837 267.557L912.056 265.703L907.112 266.785L905.876 265.394L901.704 263.694L894.597 261.994L893.052 260.294L892.589 258.595L887.491 257.358L887.645 260.294L884.401 260.913L886.872 255.349L887.491 251.795L885.018 246.85L881.619 245.46V242.987L878.684 238.197L879.92 236.497L881.002 232.479L879.766 229.543L876.676 225.989L877.602 221.971L875.439 219.344L870.341 216.099L867.869 213.936L868.951 211.464L871.886 208.682L872.349 204.51L869.568 198.174L868.487 194.156L872.813 195.547L873.894 194.774L873.74 191.993L867.406 190.911L867.251 189.057L870.341 189.675L876.212 187.512L886.254 184.73L896.915 182.103L902.013 181.331L905.103 177.931L908.039 175.304L913.91 174.222L915.918 172.986L920.244 171.132L930.442 169.277L938.939 168.659L947.282 172.213L945.892 172.677L941.257 170.823L944.656 176.231L946.355 178.085L949.445 179.476L952.072 179.94L959.642 179.167L963.041 177.467L963.813 177.622L974.011 178.24L1009.39 179.631L1020.21 179.785Z" fill="#5954A9" stroke="#EBEBEB" stroke-width="3" stroke-linecap="round" stroke-linejoin="round"/>
<path d="M462.77 587.585L460.916 587.894L453.964 591.757H451.955L448.093 590.058L441.14 589.439L438.823 588.976L436.042 590.058H433.724L432.025 591.603L430.789 591.139L432.334 587.894L434.806 581.558V577.541L435.424 574.141L434.96 570.896L433.879 568.733L435.578 563.324V560.543L434.188 556.988L438.514 557.452L435.887 555.289H433.57L430.016 556.679L427.699 556.834L427.853 554.671L427.081 551.889L430.171 550.962L432.643 548.335L432.179 545.863L430.325 547.562L429.398 549.726L425.072 550.807L422.755 550.035V547.099L423.682 544.472L424.3 540.918L425.536 537.518L425.227 535.355L427.699 533.346L429.862 530.41L436.505 516.657L435.578 515.111L438.205 504.913L440.059 501.358L440.986 494.714L440.677 491.623L439.595 488.533L438.514 481.888V479.724L437.123 476.943L437.278 475.398L439.441 472.771L441.295 471.071L444.23 469.68L450.565 468.135L452.11 470.916L450.101 473.852L451.492 475.861L456.127 474.161L460.607 474.007L464.006 475.243H466.169L470.032 473.852L471.268 471.689L473.585 472.462L481.619 472.616L482.701 474.316L482.855 479.106L485.791 479.415L488.726 480.806L489.19 482.506L485.327 486.369L482.083 488.069L479.611 490.232L477.911 492.705L474.821 495.177L476.057 498.268L476.675 503.676L476.057 509.548L476.675 511.248L472.504 514.493L472.195 516.038L474.358 518.047V520.983L471.731 526.392L470.186 527.165H463.543L461.843 527.628L463.543 530.564L465.706 532.419L466.169 535.355L468.641 540.299L471.268 540.918L472.04 542.154L471.113 545.863L466.169 550.498L464.779 556.679L469.414 563.324L472.04 563.015L470.959 566.724L467.714 567.651L462.307 574.296L461.071 577.695L462.77 587.585Z" fill="#5954A9" stroke="#EBEBEB" stroke-width="3" stroke-linecap="round" stroke-linejoin="round"/>
<path d="M1032.57 302.944L1030.25 307.58L1029.01 312.061L1026.54 314.688L1026.69 318.552L1020.05 320.251L1019.12 319.942L1015.73 316.543L1013.56 315.152L1006.46 316.234L1002.59 315.307L998.421 315.152L995.64 315.77L993.168 321.179L985.443 325.042L980.036 322.878L978.954 323.187L977.409 325.505L973.701 326.433L967.058 327.051L964.895 328.132L964.277 329.678L965.049 331.686L964.122 333.232L953.307 333.85L946.046 333.695L943.574 332.614L937.085 328.441L933.84 327.978L930.287 323.497L927.815 319.015L927.66 317.779L929.051 314.07L930.75 309.744L932.913 307.889L938.475 308.662L941.102 308.353L943.419 307.271L946.664 304.335L949.136 303.099L950.217 298.463L953.771 296.609L954.698 295.372L957.788 293.054L962.114 292.591L964.122 292.9L964.895 295.218H968.294L969.839 292.591L973.238 290.582L977.873 295.218L980.036 295.836L980.963 300.008L983.126 299.39L985.752 300.317L987.452 297.072L991.005 295.527L995.64 295.372L999.348 296.918L1002.13 297.072L1004.29 294.754L1009.24 294.445L1014.8 294.909L1019.59 296.454L1021.13 297.536L1022.37 299.699L1031.18 302.635L1032.57 302.944Z" fill="#5954A9" stroke="#EBEBEB" stroke-width="3" stroke-linecap="round" stroke-linejoin="round"/>
<path d="M925.034 363.828L921.171 362.901L919.781 364.137V366.764H916.691L915.609 368.31L908.811 370.937L908.193 373.1L909.584 374.491L909.893 377.89L909.275 379.59L906.03 380.517L902.786 382.063L904.331 383.763L903.249 384.844L904.485 388.398L902.631 389.016L900.159 388.707L897.069 387.626L895.061 388.398L892.743 387.317L888.726 384.072L886.872 387.471L885.945 387.935L880.383 388.089L878.684 387.317L876.521 389.326L871.422 388.089L870.65 387.162L873.276 385.462L875.594 385.308L875.285 383.299L872.967 381.29L870.032 379.59L870.65 376.5L868.641 376.191L868.178 374.645L870.65 371.4L867.096 370.319L866.015 368.155L871.113 364.601L871.422 363.21L879.147 364.601L886.872 365.683L891.507 363.828L893.052 361.819L895.988 360.738L900.005 360.429L904.331 360.738L907.884 359.038L910.356 358.729L914.064 359.502L914.219 356.566L916.227 355.175L919.935 355.329L922.098 360.429L925.034 363.828Z" fill="#5954A9" stroke="#EBEBEB" stroke-width="3" stroke-linecap="round" stroke-linejoin="round"/>
<path d="M688.649 248.551L687.722 250.405L682.778 252.723L676.753 251.023L674.899 251.95L673.045 250.869L672.581 248.86L676.907 248.242L682.315 249.323L684.632 248.396L686.486 249.169L688.649 248.551ZM683.396 240.361L685.714 242.524L683.396 242.988L680.924 241.442L683.396 240.361ZM711.361 227.226L706.726 226.608L705.335 225.526L709.043 222.899L713.987 220.581L716.614 221.199L717.386 222.59L715.687 224.29L711.361 227.226ZM699.619 209.455L697.919 211.155L696.992 208.991L699.619 206.828V209.455ZM688.649 248.551L684.632 247.315L681.233 248.087L676.907 247.005L674.281 244.997L676.135 243.915L679.688 243.76L685.868 244.842L687.722 243.451L686.795 241.906L683.242 238.661L685.714 234.489L687.877 232.943L692.821 227.071L694.211 223.981L696.065 215.482L697.61 212.391L699.773 213.164L702.863 211.928L708.116 208.837L709.661 206.21L711.206 204.819L717.386 202.347L720.631 201.729L734.381 200.956L737.162 203.583L741.334 204.51L741.488 211.155L740.407 213.782L738.707 219.654L733.918 219.499L732.991 221.972L734.072 223.517L738.089 223.981L739.325 225.526L738.398 229.544L734.381 232.016L733.918 233.407L735.463 234.798L734.381 236.343L727.429 238.352L723.875 237.116L721.094 238.197L720.013 239.897L724.802 246.233V248.087L722.794 252.414L723.875 254.268L720.476 256.741L719.704 257.977L722.639 259.831L721.712 263.54L719.858 263.385L716.15 262.922L715.069 261.222L716.768 259.213L718.313 254.732L714.296 253.032L711.67 251.023L708.734 251.641L704.717 249.478L703.945 247.005L700.082 248.242L698.383 246.233L696.065 247.778L693.748 246.542L691.585 247.624L691.894 249.014L688.649 248.551ZM716.614 224.444L718.004 223.054L717.232 220.118L713.987 219.654L713.215 218.418L713.833 214.555L709.507 213.936L708.889 210.073L706.571 210.537L703.018 212.855L703.945 214.864L706.417 217.336V218.727L703.172 219.808L703.327 223.826L703.018 226.299L711.361 228.462L716.614 224.444Z" fill="#5954A9" stroke="#EBEBEB" stroke-width="3" stroke-linecap="round" stroke-linejoin="round"/>
<path d="M639.519 545.553L638.901 547.099L635.811 546.48V544.163L637.665 541.69L641.836 540.608L643.072 542.617L639.519 545.553ZM673.045 524.537L674.899 525.31L676.908 524.537L679.071 525.156L679.38 526.701L675.981 532.109L675.054 534.273L671.809 536.282L665.629 533.655L665.166 531.182L663.003 530.101L660.376 532.109L658.213 530.564L657.75 528.71L665.938 522.992L668.256 521.601L673.2 520.211L673.972 522.065L673.045 524.537ZM695.757 523.301L695.293 523.61L689.268 520.674L686.796 520.056L686.95 517.893L690.967 517.584L694.212 518.665L696.066 521.447L695.757 523.301ZM576.174 437.538L576.946 439.547L583.59 441.556L583.126 446.501L585.907 445.883L592.705 448.51L596.104 448.819L599.503 452.064L605.065 451.446L610.009 454.691L614.799 454.073L615.88 454.691H623.142L624.378 450.982L630.558 452.682L634.42 454.227L637.047 454.691L638.746 457.009V460.254L639.828 460.872L644.154 459.172L648.48 461.026L650.488 462.881L653.733 461.181L660.994 463.035L662.848 461.799L668.719 460.099L673.509 461.026L675.363 464.426L672.582 465.199L672.273 467.362L674.127 469.371L674.281 472.616L669.646 476.943L656.205 484.206L651.724 488.378L641.527 490.696L634.575 493.014L631.176 493.786L624.841 499.658L626.541 500.122L628.395 501.976L627.777 502.904L623.914 504.603H622.524L618.043 511.712L614.026 516.811L611.709 519.129L609.391 522.374L604.447 531.028L604.293 533.5L606.765 541.999L610.164 546.171L613.872 547.871L614.799 549.417L613.563 550.962L609.855 553.589L603.211 557.143L600.43 560.079L599.967 562.861L597.958 564.097L597.186 567.96L594.405 574.759L596.413 576.613L594.405 577.85L584.362 578.313L578.028 582.64L574.938 586.349L572.002 593.302L568.603 597.32L567.058 598.093L564.741 596.239L561.805 596.084L558.87 596.548L557.325 598.093L555.007 598.866L552.69 598.093L545.583 597.784L542.029 599.02L539.094 598.247L534.15 597.784L523.335 598.711L517.155 603.965H511.902L507.112 605.819L503.868 610.455L503.095 612.928L501.55 612.464L501.087 614.318L497.842 615.555L494.134 614.009L491.044 611.691L489.499 611.537L487.027 608.137L485.173 603.347V601.647L482.856 600.72L482.392 598.556L482.701 596.084L480.847 592.994L473.122 587.276L467.406 586.812L462.771 587.585L461.071 577.695L462.307 574.296L467.715 567.651L470.959 566.724L472.041 563.015L469.414 563.324L464.779 556.679L466.17 550.498L471.114 545.862L472.041 542.154L471.268 540.918L468.642 540.299L466.17 535.354L465.706 532.418L463.543 530.564L461.844 527.628L463.543 527.164H470.187L471.732 526.392L474.358 520.983V518.047L472.195 516.038L472.504 514.493L476.676 511.248L476.058 509.548L476.676 503.676L476.058 498.268L474.822 495.177L477.912 492.705L479.611 490.232L482.083 488.069L485.328 486.369L489.19 482.506L488.727 480.806L485.791 479.415L482.856 479.106L482.701 474.316L481.62 472.616L473.586 472.462L471.268 471.689L470.032 473.852L466.17 475.243H464.007L460.608 474.007L456.127 474.161L451.492 475.861L450.102 473.852L452.11 470.916L450.565 468.135L444.231 469.68L441.295 471.071L439.441 472.771L437.433 472.616V468.753L441.45 464.735L438.978 464.426L440.832 461.49L439.287 459.945L439.441 455.927L435.888 457.318L435.115 455.463L437.278 452.064L435.115 451.755L431.562 447.892L432.798 443.101L435.888 441.556L438.823 439.238L442.84 439.702L445.467 439.238L451.029 436.765L450.411 434.448L451.029 433.366L455.973 430.739L459.063 430.43L461.998 429.039L464.007 429.812L465.706 429.657L467.715 430.584L470.341 433.057L474.204 433.984L477.294 433.211L482.856 433.057L485.482 433.366L490.426 432.902L493.207 433.057L497.688 431.821L501.241 433.366L508.039 433.984L512.056 435.22L523.18 437.384H527.352L533.068 436.147L535.54 435.375L537.858 435.838L541.102 434.911L544.656 436.456L551.917 438.465L555.162 436.456L560.415 437.384L565.513 439.392L568.294 439.547L572.311 439.083L576.174 437.538Z" fill="#5954A9" stroke="#EBEBEB" stroke-width="3" stroke-linecap="round" stroke-linejoin="round"/>
<path d="M795.255 451.909L794.791 455.464L796.336 458.091L797.263 468.135L794.482 473.08L794.636 477.716L792.165 484.36L790.929 486.06L785.057 482.97L783.204 481.27L784.749 478.488L781.35 477.098L781.967 474.471L781.659 473.08L779.186 472.307L780.731 470.298V469.062L778.414 467.517L777.951 466.126L779.959 464.426L779.032 463.035L779.186 461.027L780.577 458.091L782.431 456.7L786.757 455.464L788.611 453.764L791.546 454.691L792.474 452.837L792.165 448.664L792.628 446.965L794.636 447.737L795.255 451.909ZM588.379 377.89L587.761 380.054L584.825 376.345L586.37 375.573L588.379 377.89ZM718.777 291.973L722.021 293.827H724.185L727.275 292.9L729.283 293.982L731.446 294.136L736.853 300.781L739.635 299.699L741.798 300.317L742.261 301.708L745.505 301.863L750.14 300.935L753.23 303.099L760.646 304.335L763.118 305.262L763.273 307.271L757.865 313.143L755.702 321.642L754.158 324.424L753.694 326.742L754.003 330.45L753.076 333.541V335.859L754.775 337.868L752.458 338.949L751.222 341.113L747.05 341.576L745.815 340.34H744.115L741.334 342.503L743.342 344.203L742.415 345.594L736.545 351.775L733.3 353.166L732.527 357.647L727.893 361.047L726.193 365.528L727.429 366.61L726.965 368.928L724.648 370.473V372.018L726.811 372.173L730.365 369.7L729.592 367.692L733.145 365.374L736.081 365.219L739.48 365.683L740.716 369.082L739.943 371.709L743.497 375.263L744.887 377.427L740.87 380.054L741.025 382.526L742.415 383.453L745.042 387.471L747.823 389.944L746.587 393.807L744.733 394.27L742.106 396.279L739.171 395.97L737.935 396.588L740.253 401.379L745.196 403.542L745.969 406.169L744.733 407.251L742.57 411.114L743.651 413.123L743.806 415.286L745.196 416.677L753.076 420.386L758.174 419.459L758.638 422.549L755.393 426.567L755.702 428.885L754.775 429.348L753.54 429.812L749.831 431.512L743.806 436.766L741.025 438.311L739.943 441.092L736.853 443.256L733.145 444.029L729.592 445.574L727.893 444.956H723.566L720.94 443.101L715.687 441.865L713.988 439.084L710.125 438.929L708.889 436.611L705.953 437.075L703.636 438.156L700.546 438.002L691.43 435.22L689.267 433.057L686.641 433.83L684.169 436.302L674.126 442.638L670.109 449.283L669.955 451.137L671.036 457.163L673.508 461.027L668.719 460.099L662.848 461.799L660.994 463.035L653.732 461.181L650.488 462.881L648.479 461.027L644.153 459.172V456.854L640.136 455.927L638.746 457.009L637.046 454.691L634.42 454.227L630.557 452.682L624.377 450.982L623.141 454.691H615.88L614.798 454.073L610.009 454.691L605.065 451.446L599.503 452.064L596.104 448.819L592.705 448.51L585.907 445.883L583.126 446.501L583.589 441.556L576.946 439.547L576.173 437.538L579.263 436.766L582.199 433.83L584.825 422.858L586.834 410.032L588.379 407.56L590.233 406.942L588.688 405.087L586.988 407.405L588.07 395.661L588.842 391.334L590.233 386.699L595.022 390.407L596.258 391.952L597.649 397.206L598.576 397.361L596.876 390.253L594.095 386.699L588.533 383.144L587.761 381.136L590.542 380.208L589.769 377.427L588.997 368.31L584.362 367.383L576.946 363.365L574.319 359.347L571.847 356.411L571.229 353.784L572.62 351.003L571.384 349.303L569.221 348.067L570.92 345.594L566.285 345.285L563.504 344.512L563.041 342.813L565.049 340.649L562.577 339.413L558.56 339.722L558.251 337.095L554.852 337.559L552.998 337.095L551.299 335.395L549.29 335.704L545.891 335.086L544.655 334.004L537.239 331.996L534.149 331.841L531.214 332.768L529.514 332.305L527.506 328.905L522.716 327.205L523.643 326.124L528.433 325.196L529.36 324.115L525.961 322.724L525.652 320.87L528.124 321.333L528.278 319.479L522.098 319.633L521.48 317.624L522.253 315.461L525.806 313.607L534.767 311.443L538.63 311.752L541.256 311.443L545.891 308.971L550.372 308.353L554.543 309.589L558.406 313.916L560.26 315.461L565.049 312.834L571.847 312.989L573.238 314.379L575.092 311.752L576.637 313.298L583.898 312.989L581.581 309.125L581.272 299.854L579.263 297.227L576.019 290.582L576.328 288.419L581.272 288.882L585.443 287.955L587.452 288.573L587.915 292.9L589.615 295.372H593.014L596.567 296.145L601.202 296.3L607.846 297.536L610.627 296.763L616.034 293.673L613.253 292.591L612.944 291.509L614.335 288.11L622.369 284.246L628.085 283.165L633.956 281.156L637.046 278.992L638.9 276.211L639.673 274.202L640.136 263.694L641.681 260.295L646.162 257.822L656.05 256.122L657.44 255.35L658.831 258.749V260.604L663.311 264.312L668.255 262.767L670.727 265.548L671.5 268.639L677.989 270.339L678.916 273.429L680.306 272.966L685.868 273.584L688.34 275.284L687.722 277.756L688.804 278.838L687.722 281.001L688.495 281.928L692.048 282.392L695.447 281.928L697.456 281.001L698.228 278.838L701.164 277.911L699.928 282.083L700.855 283.01L701.473 286.101L704.1 286.255L709.198 288.573L713.524 292.591L718.777 291.973Z" fill="#5954A9" stroke="#EBEBEB" stroke-width="3" stroke-linecap="round" stroke-linejoin="round"/>
<path d="M462.77 587.585L460.916 587.894L453.964 591.757H451.955L448.093 590.058L441.14 589.439L438.823 588.976L436.042 590.058H433.724L432.025 591.603L430.789 591.139L432.334 587.894L434.806 581.558V577.541L435.424 574.141L434.96 570.896L433.879 568.733L435.578 563.324V560.543L434.188 556.988L438.514 557.452L435.887 555.289H433.57L430.016 556.679L427.699 556.834L427.853 554.671L427.081 551.889L430.171 550.962L432.643 548.335L432.179 545.863L430.325 547.562L429.398 549.726L425.072 550.807L422.755 550.035V547.099L423.682 544.472L424.3 540.918L425.536 537.518L425.227 535.355L427.699 533.346L429.862 530.41L436.505 516.657L435.578 515.111L438.205 504.913L440.059 501.358L440.986 494.714L440.677 491.623L439.595 488.533L438.514 481.888V479.724L437.123 476.943L437.278 475.398L439.441 472.771L441.295 471.071L444.23 469.68L450.565 468.135L452.11 470.916L450.101 473.852L451.492 475.861L456.127 474.161L460.607 474.007L464.006 475.243H466.169L470.032 473.852L471.268 471.689L473.585 472.462L481.619 472.616L482.701 474.316L482.855 479.106L485.791 479.415L488.726 480.806L489.19 482.506L485.327 486.369L482.083 488.069L479.611 490.232L477.911 492.705L474.821 495.177L476.057 498.268L476.675 503.676L476.057 509.548L476.675 511.248L472.504 514.493L472.195 516.038L474.358 518.047V520.983L471.731 526.392L470.186 527.165H463.543L461.843 527.628L463.543 530.564L465.706 532.419L466.169 535.355L468.641 540.299L471.268 540.918L472.04 542.154L471.113 545.863L466.169 550.498L464.779 556.679L469.414 563.324L472.04 563.015L470.959 566.724L467.714 567.651L462.307 574.296L461.071 577.695L462.77 587.585Z" fill="#5954A9" stroke="#EBEBEB" stroke-width="3" stroke-linecap="round" stroke-linejoin="round"/>
<circle cx="564" cy="315" r="10" fill="#FF6565"/>
<circle cx="722" cy="437" r="10" fill="#FF6565"/>
<circle cx="686" cy="379" r="10" fill="#FF6565"/>
<circle cx="860" cy="465" r="10" fill="#FF6565"/>
<circle cx="629" cy="429" r="10" fill="#FF6565"/>
<circle cx="603" cy="530" r="10" fill="#FF6565"/>
<circle cx="780" cy="520" r="10" fill="#FF6565"/>
</g>
<defs>
<clipPath id="clip0_232_1359">
<rect width="1520" height="699" fill="white"/>
</clipPath>
</defs>
</svg>
