<svg width="100" height="100" viewBox="0 0 100 100" fill="none" xmlns="http://www.w3.org/2000/svg">
<path d="M60 33.75H40C38.3424 33.75 36.7527 34.4085 35.5806 35.5806C34.4085 36.7527 33.75 38.3424 33.75 40V60C33.75 61.6576 34.4085 63.2473 35.5806 64.4194C36.7527 65.5915 38.3424 66.25 40 66.25H50C50.3315 66.25 50.6495 66.1183 50.8839 65.8839C51.1183 65.6495 51.25 65.3315 51.25 65V55C51.25 54.6685 51.1183 54.3505 50.8839 54.1161C50.6495 53.8817 50.3315 53.75 50 53.75H48.75V51.25H50C50.3315 51.25 50.6495 51.1183 50.8839 50.8839C51.1183 50.6495 51.25 50.3315 51.25 50V45.625C51.25 44.7962 51.5792 44.0013 52.1653 43.4153C52.7513 42.8292 53.5462 42.5 54.375 42.5H57.5V45H56.25C55.587 45 54.9511 45.2634 54.4822 45.7322C54.0134 46.2011 53.75 46.837 53.75 47.5V50C53.75 50.3315 53.8817 50.6495 54.1161 50.8839C54.3505 51.1183 54.6685 51.25 55 51.25H57.15L56.525 53.75H55C54.6685 53.75 54.3505 53.8817 54.1161 54.1161C53.8817 54.3505 53.75 54.6685 53.75 55V60C53.75 60.3315 53.8817 60.6495 54.1161 60.8839C54.3505 61.1183 54.6685 61.25 55 61.25C55.3315 61.25 55.6495 61.1183 55.8839 60.8839C56.1183 60.6495 56.25 60.3315 56.25 60V56.25H57.5C57.7855 56.2583 58.0653 56.1686 58.2928 55.9957C58.5202 55.8229 58.6816 55.5773 58.75 55.3L60 50.3C60.0468 50.1155 60.0509 49.9228 60.0119 49.7365C59.9729 49.5502 59.8919 49.3752 59.775 49.225C59.6534 49.0709 59.4973 48.9476 59.3192 48.8651C59.1411 48.7826 58.9461 48.7431 58.75 48.75H56.25V47.5H58.75C59.0815 47.5 59.3995 47.3683 59.6339 47.1339C59.8683 46.8995 60 46.5815 60 46.25V41.25C60 40.9185 59.8683 40.6005 59.6339 40.3661C59.3995 40.1317 59.0815 40 58.75 40H54.375C52.8842 40.0033 51.4553 40.597 50.4012 41.6512C49.347 42.7053 48.7533 44.1342 48.75 45.625V48.75H47.5C47.1685 48.75 46.8505 48.8817 46.6161 49.1161C46.3817 49.3505 46.25 49.6685 46.25 50V55C46.25 55.3315 46.3817 55.6495 46.6161 55.8839C46.8505 56.1183 47.1685 56.25 47.5 56.25H48.75V63.75H40C39.0054 63.75 38.0516 63.3549 37.3483 62.6517C36.6451 61.9484 36.25 60.9946 36.25 60V40C36.25 39.0054 36.6451 38.0516 37.3483 37.3483C38.0516 36.6451 39.0054 36.25 40 36.25H60C60.9946 36.25 61.9484 36.6451 62.6517 37.3483C63.3549 38.0516 63.75 39.0054 63.75 40V60C63.75 60.9946 63.3549 61.9484 62.6517 62.6517C61.9484 63.3549 60.9946 63.75 60 63.75H55C54.6685 63.75 54.3505 63.8817 54.1161 64.1161C53.8817 64.3505 53.75 64.6685 53.75 65C53.75 65.3315 53.8817 65.6495 54.1161 65.8839C54.3505 66.1183 54.6685 66.25 55 66.25H60C61.6576 66.25 63.2473 65.5915 64.4194 64.4194C65.5915 63.2473 66.25 61.6576 66.25 60V40C66.25 38.3424 65.5915 36.7527 64.4194 35.5806C63.2473 34.4085 61.6576 33.75 60 33.75Z" fill="#FEFEFE"/>
</svg>
