<svg width="100" height="100" viewBox="0 0 100 100" fill="none" xmlns="http://www.w3.org/2000/svg">
<path d="M55.2749 46.429C55.1211 46.4884 54.9805 46.5777 54.8613 46.6917C54.7421 46.8057 54.6466 46.9421 54.5804 47.0932C54.5141 47.2442 54.4785 47.4069 54.4754 47.5718C54.4723 47.7367 54.5019 47.9006 54.5624 48.054C54.9743 49.1226 55.0069 50.3002 54.6547 51.3899C54.3025 52.4796 53.5869 53.4154 52.6276 54.0408C51.6683 54.6662 50.5233 54.9433 49.3841 54.8259C48.245 54.7084 47.1807 54.2035 46.3691 53.3954C45.5576 52.5874 45.048 51.5253 44.9256 50.3867C44.8032 49.248 45.0754 48.1019 45.6966 47.1398C46.3179 46.1778 47.2506 45.4582 48.3387 45.1013C49.4269 44.7444 50.6046 44.7718 51.6749 45.179C51.9849 45.2967 52.3289 45.2865 52.6313 45.1505C52.9337 45.0145 53.1698 44.764 53.2874 44.454C53.4051 44.1441 53.3949 43.8 53.2589 43.4976C53.1229 43.1952 52.8724 42.9592 52.5624 42.8415C50.9589 42.235 49.1959 42.1961 47.5671 42.7314C45.9383 43.2668 44.5422 44.344 43.6111 45.7837C42.6801 47.2233 42.2704 48.9385 42.4504 50.6435C42.6303 52.3485 43.3889 53.9404 44.5999 55.154C46.0062 56.5585 47.9124 57.3474 49.8999 57.3474C51.8874 57.3474 53.7937 56.5585 55.1999 55.154C56.2296 54.1271 56.9385 52.8229 57.2403 51.4003C57.5422 49.9778 57.4239 48.4981 56.8999 47.1415C56.8405 46.9877 56.7513 46.8471 56.6373 46.7279C56.5233 46.6087 56.3868 46.5132 56.2358 46.447C56.0847 46.3807 55.9221 46.345 55.7572 46.342C55.5922 46.3389 55.4284 46.3685 55.2749 46.429Z" fill="#FEFEFE"/>
<path d="M58.4629 42.2793C59.1532 42.2793 59.7129 41.7197 59.7129 41.0293C59.7129 40.3389 59.1532 39.7793 58.4629 39.7793C57.7725 39.7793 57.2129 40.3389 57.2129 41.0293C57.2129 41.7197 57.7725 42.2793 58.4629 42.2793Z" fill="#FEFEFE"/>
<path d="M64.7125 41.0287C64.7128 39.3925 64.0716 37.8215 62.9264 36.6529C61.7811 35.4843 60.2234 34.8114 58.5875 34.7787C52.7249 34.2404 46.8252 34.2404 40.9625 34.7787C39.3221 34.7785 37.7474 35.4232 36.5781 36.5738C35.4088 37.7243 34.7388 39.2885 34.7125 40.9287C34.2625 46.7867 34.2625 52.6707 34.7125 58.5287C34.7122 60.1649 35.3535 61.7359 36.4987 62.9045C37.6439 64.0731 39.2017 64.746 40.8375 64.7787C43.7875 65.0537 46.75 65.2037 49.7125 65.2037C52.675 65.2037 55.6 65.0662 58.525 64.7787C60.1546 64.7626 61.7134 64.1107 62.8693 62.9618C64.0251 61.813 64.6865 60.2581 64.7125 58.6287C65.1875 52.7716 65.1875 46.8858 64.7125 41.0287ZM62.2125 58.5287C62.2125 59.5233 61.8174 60.4771 61.1142 61.1804C60.4109 61.8836 59.4571 62.2787 58.4625 62.2787H58.3375C52.5595 62.8412 46.7405 62.8412 40.9625 62.2787C40.4615 62.2789 39.9656 62.1787 39.504 61.984C39.0424 61.7893 38.6244 61.5041 38.2749 61.1452C37.9253 60.7864 37.6512 60.3611 37.4688 59.8945C37.2863 59.4279 37.1992 58.9295 37.2125 58.4287C36.775 52.637 36.775 46.8204 37.2125 41.0287C37.2123 40.5266 37.3129 40.0296 37.5083 39.5672C37.7038 39.1047 37.9901 38.6862 38.3503 38.3365C38.7106 37.9867 39.1373 37.7129 39.6054 37.5312C40.0734 37.3495 40.5732 37.2636 41.075 37.2787C43.9417 37.0204 46.8167 36.887 49.7 36.8787C52.5834 36.8704 55.5042 37.0037 58.4625 37.2787C58.9635 37.2785 59.4594 37.3787 59.9211 37.5734C60.3827 37.7681 60.8006 38.0533 61.1502 38.4122C61.4997 38.771 61.7738 39.1963 61.9563 39.6629C62.1388 40.1295 62.2259 40.6279 62.2125 41.1287C62.6875 46.919 62.6875 52.7384 62.2125 58.5287Z" fill="#FEFEFE"/>
</svg>
