<svg width="24" height="24" viewBox="0 0 24 24" fill="none" xmlns="http://www.w3.org/2000/svg">
<path d="M18.0001 12.0004H19.9251C20.8931 12.0004 21.2961 10.7604 20.5131 10.1914L12.5881 4.42844C12.4172 4.30422 12.2113 4.2373 12.0001 4.2373C11.7888 4.2373 11.5829 4.30422 11.4121 4.42844L3.48705 10.1904C2.70405 10.7604 3.10705 11.9994 4.07505 11.9994H6.00005V18.9994C6.00005 19.2647 6.10541 19.519 6.29295 19.7066C6.48048 19.8941 6.73484 19.9994 7.00005 19.9994H10.0001V13.9994H14.0001V19.9994H17.0001C17.2653 19.9994 17.5196 19.8941 17.7072 19.7066C17.8947 19.519 18.0001 19.2647 18.0001 18.9994V11.9994V12.0004Z" fill="#FEFEFE"/>
</svg>
