<svg width="24" height="24" viewBox="0 0 24 24" fill="none" xmlns="http://www.w3.org/2000/svg">
<path d="M13.8833 15.0261C13.8833 14.4809 13.7292 14.0477 13.4235 13.7288C13.1227 13.4014 12.6112 13.103 11.8855 12.8298C11.2453 12.5937 10.6182 12.3233 10.007 12.0199C9.51552 11.7707 9.05876 11.4584 8.64827 11.0908C8.27688 10.7398 7.97834 10.319 7.76975 9.85248C7.56276 9.37953 7.45926 8.81752 7.45926 8.16405C7.45926 7.03883 7.81909 6.11578 8.53875 5.39612C9.25721 4.67767 10.2127 4.25887 11.4054 4.13852V2.79909C11.4054 2.58716 11.4896 2.38391 11.6394 2.23405C11.7893 2.08419 11.9925 2 12.2044 2C12.4164 2 12.6196 2.08419 12.7695 2.23405C12.9193 2.38391 13.0035 2.58716 13.0035 2.79909V4.16741C14.1829 4.33348 15.1048 4.82689 15.7715 5.64524C16.2191 6.1928 16.5164 6.84868 16.662 7.61528C16.7872 8.26875 16.2312 8.81271 15.5669 8.81271H15.0855C14.4212 8.81271 13.9302 8.25431 13.7136 7.62611C13.6422 7.40669 13.5304 7.20259 13.3838 7.02438C13.0565 6.62484 12.6172 6.42507 12.0648 6.42507C11.5185 6.42507 11.0961 6.58152 10.7964 6.89441C10.4956 7.20129 10.3463 7.62731 10.3463 8.17247C10.3463 8.67912 10.4931 9.08589 10.7856 9.39156C11.0792 9.69844 11.622 10.0113 12.4138 10.3303C13.2141 10.6504 13.87 10.9536 14.3827 11.2401C14.8954 11.5193 15.3274 11.8394 15.6812 12.1992C16.0338 12.5518 16.3034 12.9574 16.4899 13.4171C16.6765 13.8708 16.7691 14.4003 16.7691 15.0056C16.7691 16.1381 16.4165 17.0575 15.7101 17.7627C15.0049 18.4692 14.0325 18.8855 12.7941 19.0119V20.2057C12.7941 20.4164 12.7105 20.6184 12.5615 20.7674C12.4125 20.9163 12.2105 21 11.9999 21C11.7892 21 11.5872 20.9163 11.4382 20.7674C11.2893 20.6184 11.2056 20.4164 11.2056 20.2057V19.0215C9.84088 18.8747 8.78185 18.3921 8.02849 17.5738C7.51582 17.0046 7.17886 16.3078 7.0176 15.4834C6.89244 14.8311 7.44843 14.286 8.11273 14.286H8.59411C9.25841 14.286 9.75183 14.8456 9.98168 15.4702C10.0719 15.7181 10.1983 15.9335 10.356 16.1152C10.7362 16.534 11.279 16.7434 11.9842 16.7434C12.5703 16.7434 13.0336 16.5906 13.373 16.2849C13.7124 15.972 13.8833 15.552 13.8833 15.0261Z" fill="#FEFEFE"/>
</svg>
