<svg width="24" height="24" viewBox="0 0 24 24" fill="none" xmlns="http://www.w3.org/2000/svg">
<path d="M18.5101 3.86793C18.1386 3.49648 17.6977 3.20182 17.2123 3.00079C16.727 2.79976 16.2069 2.69629 15.6816 2.69629C15.1563 2.69629 14.6361 2.79976 14.1508 3.00079C13.6655 3.20182 13.2245 3.49648 12.8531 3.86793L8.61106 8.11094C7.86089 8.8611 7.43945 9.87854 7.43945 10.9394C7.43945 12.0003 7.86089 13.0178 8.61106 13.7679C9.36122 14.5181 10.3787 14.9395 11.4396 14.9395C12.5004 14.9395 13.5179 14.5181 14.2681 13.7679L14.7701 13.2649C14.7701 13.2649 14.5441 12.6299 14.2681 12.3539C13.9921 12.0769 13.3561 11.8509 13.3561 11.8509L12.8541 12.3539C12.4789 12.7291 11.9701 12.9398 11.4396 12.9398C10.909 12.9398 10.4002 12.7291 10.0251 12.3539C9.64991 11.9788 9.43915 11.47 9.43915 10.9394C9.43915 10.4089 9.64991 9.90008 10.0251 9.52493L14.2681 5.28193C14.6432 4.90692 15.152 4.69629 15.6824 4.69638C16.2129 4.69648 16.7215 4.90729 17.0966 5.28243C17.4716 5.65758 17.6822 6.16634 17.6821 6.69679C17.682 7.22724 17.4712 7.73592 17.0961 8.11094L16.3891 8.81793C16.3891 8.81793 16.8791 9.13593 17.1871 9.44493C17.4971 9.75393 17.8031 10.2319 17.8031 10.2319L18.5101 9.52493C18.8815 9.1535 19.1762 8.71253 19.3772 8.22722C19.5782 7.7419 19.6817 7.22174 19.6817 6.69643C19.6817 6.17113 19.5782 5.65097 19.3772 5.16565C19.1762 4.68034 18.8815 4.23937 18.5101 3.86793Z" fill="#FEFEFE"/>
<path d="M16.39 10.2317C16.0186 9.86011 15.5775 9.56533 15.0921 9.36421C14.6067 9.16309 14.0865 9.05957 13.561 9.05957C13.0356 9.05957 12.5153 9.16309 12.0299 9.36421C11.5445 9.56533 11.1035 9.86011 10.732 10.2317L10.191 10.7737C10.191 10.7737 10.459 11.3737 10.735 11.6487C11.011 11.9247 11.605 12.1877 11.605 12.1877L12.146 11.6457C12.3318 11.46 12.5523 11.3126 12.795 11.2121C13.0377 11.1116 13.2978 11.0598 13.5605 11.0598C13.8232 11.0598 14.0834 11.1116 14.3261 11.2121C14.5688 11.3126 14.7893 11.46 14.975 11.6457C15.1608 11.8315 15.3081 12.052 15.4087 12.2947C15.5092 12.5374 15.5609 12.7975 15.5609 13.0602C15.5609 13.3229 15.5092 13.583 15.4087 13.8257C15.3081 14.0684 15.1608 14.289 14.975 14.4747L10.732 18.7177C10.5463 18.9034 10.3258 19.0507 10.0831 19.1512C9.84042 19.2516 9.58033 19.3033 9.31768 19.3033C8.78723 19.3032 8.27855 19.0924 7.90353 18.7172C7.52852 18.3421 7.31789 17.8333 7.31798 17.3029C7.31807 16.7724 7.52888 16.2637 7.90403 15.8887L8.68303 15.1097C8.68303 15.1097 8.18003 14.7507 7.90303 14.4747C7.62803 14.1987 7.26803 13.6957 7.26803 13.6957L6.49003 14.4747C6.11174 14.8446 5.81057 15.2858 5.60397 15.7728C5.39738 16.2599 5.28945 16.7831 5.28644 17.3121C5.28343 17.8412 5.38541 18.3656 5.58646 18.8549C5.78751 19.3443 6.08364 19.7889 6.4577 20.163C6.83176 20.5372 7.27633 20.8334 7.76566 21.0345C8.25499 21.2357 8.77936 21.3377 9.30841 21.3348C9.83745 21.3319 10.3607 21.2241 10.8477 21.0175C11.3348 20.811 11.7761 20.5099 12.146 20.1317L16.389 15.8887C16.7605 15.5173 17.0551 15.0763 17.2562 14.591C17.4572 14.1057 17.5607 13.5855 17.5607 13.0602C17.5607 12.5349 17.4572 12.0148 17.2562 11.5294C17.0551 11.0441 16.7605 10.6032 16.389 10.2317H16.39Z" fill="#FEFEFE"/>
</svg>
