<svg width="100" height="100" viewBox="0 0 100 100" fill="none" xmlns="http://www.w3.org/2000/svg">
<path d="M65.9497 39.7903C65.8694 39.6907 65.772 39.6061 65.6622 39.5403C65.9412 39.0026 66.1352 38.4249 66.2372 37.8278C66.2767 37.5886 66.2457 37.343 66.148 37.1211C66.0504 36.8991 65.8903 36.7104 65.6872 36.5778C65.4831 36.4434 65.2441 36.3718 64.9997 36.3718C64.7554 36.3718 64.5163 36.4434 64.3122 36.5778C63.4452 37.1412 62.4775 37.5317 61.4622 37.7278C60.2957 36.6328 58.8194 35.9251 57.2352 35.7013C55.651 35.4775 54.0364 35.7488 52.6122 36.4778C51.1257 37.256 49.939 38.505 49.2379 40.0294C48.5367 41.5539 48.3607 43.2677 48.7372 44.9028C48.8035 45.2343 48.9988 45.526 49.2801 45.7135C49.5614 45.901 49.9057 45.9691 50.2372 45.9028C50.5688 45.8365 50.8604 45.6412 51.0479 45.3599C51.2354 45.0786 51.3035 44.7343 51.2372 44.4028C50.9784 43.3173 51.0827 42.1767 51.5343 41.1562C51.9859 40.1356 52.7598 39.2913 53.7372 38.7528C54.7907 38.218 55.9927 38.0506 57.1522 38.2771C58.3118 38.5035 59.3624 39.111 60.1372 40.0028C60.279 40.1453 60.4529 40.2515 60.6444 40.3124C60.8359 40.3733 61.0393 40.3872 61.2372 40.3528H61.5497C61.4079 40.4996 61.3042 40.679 61.2477 40.8751C61.1912 41.0712 61.1836 41.2782 61.2255 41.478C61.2674 41.6777 61.3576 41.8642 61.4882 42.0211C61.6188 42.1779 61.7859 42.3004 61.9747 42.3778C61.8143 42.5094 61.6892 42.6789 61.6106 42.8709C61.5321 43.063 61.5026 43.2715 61.5247 43.4778C61.7321 46.141 61.2833 48.8144 60.2177 51.2638C59.1521 53.7133 57.5021 55.8641 55.4122 57.5278C53.2688 59.3671 50.6751 60.6037 47.8967 61.111C45.1182 61.6184 42.2549 61.3783 39.5997 60.4153C41.7109 60.0616 43.6786 59.1167 45.2747 57.6903C45.4358 57.5064 45.5394 57.2794 45.5727 57.0372C45.6061 56.795 45.5676 56.5484 45.4622 56.3278C45.3583 56.1093 45.1931 55.9256 44.9867 55.7991C44.7803 55.6726 44.5417 55.6088 44.2997 55.6153C43.5869 55.6098 42.8836 55.4518 42.2368 55.1522C41.59 54.8525 41.0148 54.418 40.5497 53.8778C40.9856 53.7939 41.4067 53.6465 41.7997 53.4403C42.0348 53.3248 42.2276 53.1384 42.3509 52.9073C42.4743 52.6763 42.522 52.4124 42.4872 52.1528C42.4536 51.9023 42.3449 51.6678 42.1753 51.4803C42.0056 51.2929 41.7832 51.1613 41.5372 51.1028C40.717 50.9066 39.9526 50.5252 39.3026 49.9878C38.6526 49.4505 38.1343 48.7715 37.7872 48.0028C38.0872 48.0028 38.3872 48.0653 38.7122 48.0778C38.9758 48.0974 39.2387 48.0329 39.4633 47.8936C39.6879 47.7544 39.8626 47.5475 39.9622 47.3028C40.0515 47.0582 40.0622 46.7918 39.9927 46.5408C39.9233 46.2898 39.7771 46.0667 39.5747 45.9028C37.4872 44.0028 36.9747 41.9653 37.2747 40.5278C39.6325 43.0235 42.6776 44.7636 46.0247 45.5278C46.1889 45.559 46.3576 45.5576 46.5212 45.5236C46.6848 45.4896 46.8401 45.4237 46.9782 45.3296C47.1163 45.2356 47.2346 45.1153 47.3262 44.9756C47.4178 44.8359 47.4811 44.6795 47.5122 44.5153C47.5434 44.3512 47.542 44.1825 47.508 44.0189C47.474 43.8553 47.4081 43.7 47.3141 43.5619C47.22 43.4238 47.0997 43.3055 46.96 43.2139C46.8203 43.1222 46.6639 43.059 46.4997 43.0278C43.1114 42.2339 40.1005 40.2958 37.9747 37.5403C37.8623 37.3978 37.7202 37.2815 37.5583 37.1995C37.3964 37.1175 37.2186 37.0717 37.0372 37.0653C36.8544 37.0586 36.6724 37.092 36.5039 37.1633C36.3354 37.2345 36.1847 37.3419 36.0622 37.4778C35.2527 38.5448 34.7828 39.8306 34.7137 41.1682C34.6446 42.5057 34.9794 43.8331 35.6747 44.9778H35.5622C35.3775 45.0783 35.221 45.2237 35.1074 45.4007C34.9938 45.5777 34.9267 45.7805 34.9122 45.9903C34.8919 47.0423 35.0991 48.0863 35.5198 49.0507C35.9406 50.0151 36.5648 50.8772 37.3497 51.5778C37.204 51.7471 37.1062 51.9523 37.0667 52.1721C37.0271 52.392 37.0471 52.6184 37.1247 52.8278C37.8486 54.7579 39.2659 56.349 41.0997 57.2903C39.1457 58.0257 37.0751 58.4025 34.9872 58.4028C34.7144 58.4056 34.4501 58.4976 34.2344 58.6647C34.0187 58.8317 33.8637 59.0648 33.7929 59.3283C33.722 59.5917 33.7393 59.8711 33.8422 60.1238C33.945 60.3765 34.1276 60.5886 34.3622 60.7278C37.5627 62.6948 41.2313 63.7695 44.9872 63.8403C49.3838 63.79 53.6261 62.2124 56.9872 59.3778C59.308 57.5299 61.1612 55.1615 62.3969 52.4644C63.6325 49.7673 64.2158 46.8172 64.0997 43.8528C65.0468 43.1448 65.7536 42.163 66.1247 41.0403C66.2091 40.8352 66.2374 40.6113 66.2066 40.3916C66.1758 40.1719 66.0872 39.9644 65.9497 39.7903Z" fill="#FEFEFE"/>
</svg>
